<svg class="img-fluid" id="outputsvg" xmlns="http://www.w3.org/2000/svg" style="transform: none; transform-origin: 50% 50%; cursor: move; max-height: 368.56px;" width="512" height="512" viewBox="0 0 5120 5120"><g id="l5C5exOdygjU0tRjbFIBUOv" fill="rgb(8,9,9)" style="transform: none;"><g style="transform: none;"><path id="p18c5JRhHd" d="M3742 5109 c-389 -29 -753 -248 -966 -581 -40 -63 -47 -65 -123 -48 -139 32 -466 42 -653 20 -314 -38 -677 -165 -930 -326 -286 -182 -542 -438 -724 -724 -161 -253 -288 -616 -326 -929 -14 -121 -14 -401 0 -522 38 -313 165 -676 326 -929 129 -201 341 -440 510 -572 332 -261 734 -428 1148 -478 118 -14 396 -14 516 0 266 32 517 108 757 228 133 67 166 96 160 136 -3 20 1 38 11 49 16 17 15 20 -3 33 -10 8 -42 14 -70 14 -43 0 -69 -9 -157 -55 -349 -182 -787 -273 -1133 -236 -833 91 -1530 644 -1788 1421 -125 375 -147 670 -76 1030 143 721 648 1312 1342 1569 251 93 501 136 742 128 166 -6 305 -25 305 -41 0 -6 -9 -40 -21 -76 -30 -95 -49 -239 -49 -369 0 -295 86 -569 248 -790 95 -130 253 -270 398 -355 l71 -41 7 -470 c5 -391 9 -473 22 -492 13 -20 23 -23 79 -23 112 0 105 -33 105 474 l0 434 53 -14 c92 -24 256 -37 397 -30 133 6 193 15 318 51 34 10 65 16 67 13 2 -2 12 -73 21 -158 69 -655 -211 -1329 -738 -1777 l-88 -74 0 -66 c0 -57 2 -64 15 -53 12 10 22 9 49 -4 19 -9 42 -13 53 -9 32 11 164 127 263 229 411 425 630 965 631 1553 0 192 -10 297 -42 460 -19 95 -19 105 -5 113 24 13 20 26 -14 43 -46 24 -90 18 -198 -25 -310 -124 -605 -113 -886 33 -316 164 -541 471 -601 821 -19 113 -19 189 1 307 30 172 102 341 205 480 60 81 195 212 274 266 210 142 471 210 700 183 521 -62 922 -464 986 -989 27 -223 -35 -464 -175 -680 -25 -39 -91 -118 -146 -175 l-100 -105 0 -60 c0 -60 6 -71 27 -50 8 8 18 6 37 -6 38 -25 64 -14 145 61 187 173 331 440 376 699 20 116 20 324 0 440 -44 252 -169 490 -355 675 -266 266 -621 397 -998 369z"></path><path id="pOjVuqWEv" d="M3710 4543 c-149 -25 -319 -123 -418 -242 -103 -123 -152 -271 -152 -456 0 -284 137 -514 379 -635 195 -97 469 -95 659 5 185 97 316 267 358 466 22 104 14 300 -16 389 -81 240 -272 415 -506 465 -63 13 -243 18 -304 8z m275 -234 c126 -42 233 -138 297 -266 34 -68 42 -96 46 -155 6 -93 -10 -170 -53 -256 -94 -186 -314 -307 -501 -273 -246 45 -451 316 -414 546 33 208 191 371 405 421 70 16 136 11 220 -17z"></path><path id="p1DULdjZsU" d="M1811 3401 c-17 -17 -18 -66 -25 -1114 -8 -1147 -8 -1155 34 -1177 33 -18 125 -12 151 9 l24 19 2 1099 c1 718 -2 1109 -8 1131 -13 41 -34 52 -103 52 -41 0 -61 -5 -75 -19z"></path><path id="pxRFFKFeM" d="M1454 3148 c-12 -5 -26 -20 -31 -32 -7 -15 -11 -1656 -4 -1708 1 -4 11 -16 23 -28 17 -15 35 -20 78 -20 48 0 60 4 81 26 l24 26 -1 850 -1 851 -27 24 c-30 25 -102 31 -142 11z"></path><path id="pgrVE4VN4" d="M2544 2939 c-18 -20 -19 -46 -19 -679 0 -763 -9 -700 102 -700 72 0 98 17 108 72 3 18 5 316 3 661 l-3 629 -24 19 c-35 28 -141 27 -167 -2z"></path><path id="ppHZRZiqA" d="M1071 2931 c-17 -17 -19 -46 -24 -422 -3 -222 -5 -516 -4 -652 2 -248 2 -249 26 -268 17 -14 39 -19 83 -19 49 0 63 4 84 25 l24 25 -2 646 -3 646 -24 19 c-33 27 -133 27 -160 0z"></path><path id="p7Qx20ozZ" d="M2179 2771 l-29 -29 0 -482 0 -482 29 -29 c40 -39 115 -42 158 -5 l28 24 3 478 c2 330 -1 487 -8 505 -14 33 -48 49 -106 49 -37 0 -51 -6 -75 -29z"></path><path id="p1CriKcp1k" d="M2910 2713 c-20 -26 -21 -32 -18 -459 3 -507 -4 -474 108 -474 111 0 104 -26 108 429 2 212 0 410 -3 439 -9 76 -29 92 -109 92 -58 0 -67 -3 -86 -27z"></path><path id="p4Wi7uhvW" d="M703 2500 c-32 -29 -36 -66 -28 -272 7 -186 8 -189 33 -208 28 -23 96 -27 136 -9 39 18 46 58 46 256 0 240 -6 253 -114 253 -38 0 -58 -5 -73 -20z"></path><path id="pKcdKqYLP" d="M3651 2454 c-19 -25 -21 -40 -21 -195 0 -163 1 -169 24 -196 22 -25 31 -28 84 -28 106 0 116 23 106 254 -9 187 -11 191 -108 191 -58 0 -67 -3 -85 -26z"></path><path id="p10UGH5pRp" d="M330 2410 c-18 -18 -20 -33 -20 -150 0 -117 2 -132 20 -150 28 -28 127 -28 161 -1 23 18 24 27 27 143 3 114 2 125 -18 151 -19 24 -28 27 -86 27 -51 0 -68 -4 -84 -20z"></path><path id="pvQeLAF1g" d="M4044 2418 c-12 -5 -27 -21 -33 -34 -14 -32 -14 -216 0 -247 23 -51 127 -65 174 -24 24 21 25 27 28 145 l2 124 -28 24 c-22 18 -39 24 -75 23 -26 0 -57 -5 -68 -11z"></path></g></g><g id="luBkEsFV1aHbb4cgFWyXS1" fill="rgb(207,96,96)" style="transform: none;"><g style="transform: none;"><path id="pZpW0yMsu" d="M3735 4356 c-222 -52 -376 -217 -407 -437 -23 -161 29 -312 149 -440 109 -115 245 -168 403 -156 306 24 513 282 479 597 -15 139 -106 281 -234 366 -106 69 -267 98 -390 70z"></path></g></g><g id="l1De8jOb2LsY5t4OsWWtrgE" fill="rgb(155,196,247)" style="transform: none;"><g style="transform: none;"><path id="pVGP6fM3j" d="M1986 4355 c-674 -96 -1261 -502 -1584 -1095 -195 -357 -285 -815 -241 -1218 20 -187 105 -512 134 -512 31 0 38 75 25 273 -15 215 -9 457 14 592 36 215 148 578 204 658 135 197 288 397 397 521 68 78 272 235 357 276 32 16 75 41 95 57 158 121 450 227 776 283 66 11 152 20 192 20 l72 0 -1 -197 c0 -155 3 -212 16 -263 22 -87 91 -261 132 -335 28 -51 38 -60 64 -63 l30 -3 -33 103 c-83 256 -85 523 -5 772 17 54 29 100 26 103 -33 33 -501 52 -670 28z"></path></g></g><g id="l6QO0z2Hep0YhCiSR5vevGH" fill="rgb(198,229,251)" style="transform: none;"><g style="transform: none;"><path id="p3xFA3C1z" d="M284 1833 c14 -128 15 -210 3 -243 -14 -38 -3 -77 57 -212 32 -73 43 -78 75 -39 22 26 33 31 69 31 l42 0 0 45 c0 50 -18 103 -43 123 -12 10 -14 19 -6 38 25 67 6 115 -75 192 -30 29 -63 66 -73 82 -9 17 -25 30 -36 30 -15 0 -17 -6 -13 -47z"></path></g></g><g id="l5kHD3z2gdxu49xL0QgNn38" fill="rgb(204,232,246)" style="transform: none;"><g style="transform: none;"><path id="pWtVbSVFh" d="M3725 4963 c-185 -22 -363 -87 -510 -186 -79 -54 -214 -185 -274 -266 -180 -243 -256 -556 -205 -850 22 -128 79 -291 101 -291 16 0 17 60 2 113 -8 31 -6 56 11 130 12 50 24 141 27 202 7 124 14 147 108 316 110 200 270 369 418 444 40 20 83 47 97 61 27 25 220 100 348 135 98 27 299 36 397 19 39 -6 99 -14 133 -17 58 -5 64 -4 60 13 -4 25 -168 106 -278 137 -132 39 -312 55 -435 40z"></path><path id="p3UPsXWtV" d="M2305 4240 c-334 -22 -757 -157 -948 -303 -20 -16 -63 -41 -95 -57 -85 -41 -289 -198 -357 -276 -82 -93 -181 -219 -278 -353 -154 -214 -154 -213 -206 -379 -112 -352 -131 -461 -138 -774 -6 -273 -9 -264 94 -361 78 -73 86 -93 67 -152 -16 -46 -16 -47 9 -73 25 -26 47 -71 47 -96 0 -8 -12 -11 -35 -8 -30 4 -40 -1 -69 -33 l-35 -37 36 -67 c295 -551 821 -947 1431 -1075 476 -100 983 -29 1420 199 111 58 136 64 167 41 18 -13 25 -10 70 21 47 33 50 38 47 73 -4 36 -1 40 85 112 540 459 813 1137 739 1835 -16 151 -22 183 -35 183 -3 0 -42 -12 -86 -26 -233 -74 -480 -83 -705 -24 -41 11 -78 20 -82 20 -5 0 -8 -198 -8 -440 0 -427 -1 -441 -20 -460 -12 -12 -33 -20 -55 -20 -65 0 -64 -8 -71 517 l-7 471 -26 12 c-48 22 -186 118 -248 172 -132 115 -261 284 -324 423 -16 36 -38 74 -49 85 -27 27 -72 119 -119 242 -61 161 -66 198 -63 421 l2 197 -22 -2 c-13 0 -72 -4 -133 -8z m-375 -860 c10 -5 23 -25 28 -42 16 -53 15 -2136 -1 -2168 -15 -30 -54 -45 -91 -36 -60 15 -58 -27 -50 1149 7 1022 8 1071 26 1089 20 20 59 24 88 8z m-364 -273 l27 -23 1 -821 1 -821 -24 -26 c-30 -31 -69 -34 -99 -6 -12 12 -22 24 -23 28 -6 62 -3 1633 4 1648 19 45 73 55 113 21z m1115 -196 l24 -19 3 -599 c2 -329 0 -613 -3 -631 -3 -18 -15 -42 -26 -53 -26 -26 -80 -25 -105 2 -18 20 -19 46 -19 649 0 603 1 629 19 649 24 27 76 28 107 2z m-1480 -10 l24 -19 2 -617 3 -616 -25 -25 c-29 -29 -74 -31 -106 -5 l-24 19 -1 259 c-1 142 1 422 4 622 5 337 6 365 24 383 23 23 69 23 99 -1z m1093 -142 c13 -7 30 -24 36 -38 7 -19 10 -165 8 -475 l-3 -448 -28 -24 c-37 -32 -62 -30 -98 5 l-29 29 0 452 0 452 29 29 c32 32 47 35 85 18z m755 -68 c29 -29 33 -90 29 -482 -3 -335 -4 -358 -22 -378 -26 -29 -86 -29 -112 0 -18 20 -19 44 -22 423 -3 396 -2 403 18 429 26 33 80 37 109 8z m-2234 -207 c36 -14 45 -57 45 -217 0 -168 -8 -208 -46 -226 -35 -15 -47 -14 -76 9 -24 19 -25 24 -32 187 -8 175 -2 213 32 239 18 14 51 18 77 8z m2975 -54 c17 -17 20 -35 22 -117 5 -178 2 -203 -20 -226 -30 -30 -79 -27 -109 7 -22 26 -23 35 -23 165 0 125 2 141 21 165 26 33 79 36 109 6z m-3320 -57 c19 -25 21 -38 18 -121 -3 -84 -5 -96 -27 -113 -30 -25 -76 -24 -101 1 -17 17 -20 33 -20 120 0 87 3 103 20 120 30 30 83 27 110 -7z m3687 3 c27 -23 27 -26 25 -117 -2 -87 -4 -96 -28 -116 -28 -26 -42 -28 -77 -12 -35 16 -47 49 -47 129 0 77 12 113 44 128 33 17 53 14 83 -12z"></path></g></g><g id="l7PuyeLRalb7sLRhzy3h4zO" fill="rgb(243,250,253)" style="transform: none;"><g style="transform: none;"><path id="p1Ge6xbsKp" d="M3920 4823 c-127 -21 -411 -120 -450 -157 -14 -14 -57 -41 -97 -61 -148 -75 -308 -244 -418 -444 -98 -177 -106 -201 -110 -321 -1 -62 -11 -141 -24 -193 -25 -105 -26 -130 -7 -220 24 -115 123 -264 262 -397 326 -311 776 -393 1207 -220 101 41 102 41 138 24 37 -16 38 -16 81 14 40 28 44 33 40 66 -4 33 2 42 97 141 111 114 172 202 231 328 147 313 128 711 -49 1018 -114 199 -329 400 -434 405 -23 1 -69 7 -102 13 -56 10 -310 13 -365 4z m64 -318 c294 -62 516 -322 533 -625 21 -381 -290 -710 -672 -710 -367 0 -675 308 -675 675 0 297 191 553 481 644 35 11 75 22 89 24 58 10 180 6 244 -8z"></path></g></g></svg>