<svg class="img-fluid" id="outputsvg" xmlns="http://www.w3.org/2000/svg" style="transform: matrix(1.69, 0, 0, 1.69, 0, 0); transform-origin: 50% 50%; cursor: move; max-height: none; transition: transform 200ms ease-in-out;" width="1024" height="1024" viewBox="0 0 10240 10240"><g id="l21K9CezRVnw4RkrNjcBCkk" fill="rgb(248,247,245)" style="transform: none;"><g style="transform: none;"><path id="p3AAgRGoK" d="M0 5120 c0 -5120 0 -5120 5120 -5120 5120 0 5120 0 5120 5120 0 5120 0 5120 -5120 5120 -5120 0 -5120 0 -5120 -5120z m4560 1590 c7 -13 5 -24 -8 -40 -15 -19 -22 -21 -39 -12 -30 17 -35 40 -13 62 22 22 45 18 60 -10z m-329 -174 c270 -63 487 -187 755 -432 75 -69 110 -94 129 -94 19 0 56 27 133 93 174 152 315 252 457 322 384 191 779 191 1170 0 416 -203 704 -610 766 -1083 31 -238 -28 -535 -154 -774 -243 -462 -746 -758 -1248 -735 -357 16 -673 167 -1005 480 -60 57 -89 77 -109 77 -26 0 -40 -11 -214 -163 -78 -69 -277 -204 -361 -247 -60 -30 -60 -31 -60 -74 0 -35 7 -54 35 -90 19 -26 35 -48 35 -51 0 -18 -39 -45 -65 -45 -24 0 -42 12 -84 56 -51 55 -55 57 -126 67 -54 8 -101 7 -188 -3 -586 -67 -1145 263 -1389 822 -166 378 -156 772 29 1143 188 375 546 650 963 739 114 24 124 25 280 21 109 -3 171 -10 251 -29z m683 -1 c31 -29 32 -35 5 -69 -25 -31 -48 -33 -77 -6 -29 28 -28 54 4 79 33 26 35 26 68 -4z m370 -148 c8 -12 5 -21 -9 -36 -17 -20 -19 -20 -37 -5 -23 21 -23 40 0 53 21 13 32 10 46 -12z m-270 -2350 c13 -21 -15 -53 -38 -44 -26 10 -31 38 -11 54 22 16 35 13 49 -10z m395 -104 c19 -23 20 -29 8 -47 -8 -12 -25 -26 -38 -33 -27 -14 -52 -3 -76 34 -12 17 -10 23 11 46 32 35 68 35 95 0z m341 -213 c13 -25 -24 -59 -48 -44 -24 15 -27 45 -7 60 20 15 42 9 55 -16z"></path><path id="p1ChIpg26M" d="M6070 5810 c-25 -6 -46 -14 -48 -20 -2 -5 -18 -10 -36 -10 -44 0 -137 -39 -283 -118 -119 -65 -123 -68 -123 -100 0 -60 129 -187 290 -286 74 -46 74 -46 172 -46 59 0 98 -4 98 -10 0 -5 -13 -10 -28 -10 -64 0 -236 -77 -328 -147 -28 -21 -85 -70 -127 -109 -68 -62 -77 -75 -77 -106 0 -20 6 -40 13 -46 39 -32 334 -174 397 -191 94 -26 285 -29 375 -5 173 44 320 178 387 351 26 68 31 95 35 203 4 107 2 137 -17 210 -69 268 -275 434 -553 445 -56 2 -122 0 -147 -5z"></path><path id="p17vIE6UU3" d="M3875 5796 c-95 -23 -166 -65 -250 -150 -126 -127 -175 -255 -175 -453 0 -123 19 -204 71 -303 70 -135 187 -234 330 -280 58 -19 96 -24 188 -24 165 -1 228 17 444 127 177 91 177 91 177 128 0 33 -8 45 -69 104 -118 113 -192 165 -309 211 -59 24 -98 44 -86 44 31 0 172 72 242 124 34 26 99 81 142 123 68 64 80 81 80 108 0 30 -6 37 -67 72 -111 63 -283 144 -353 164 -76 22 -283 25 -365 5z"></path></g></g><g id="l2gDDkhJBdXKCVnmdzImhJV" fill="rgb(225,233,214)" style="transform: none;"><g style="transform: none;"><path id="pzqsXSgD6" d="M5960 5243 c0 -40 142 -77 218 -57 27 8 28 24 3 55 -18 22 -26 24 -120 24 -97 0 -101 -1 -101 -22z"></path><path id="p19cZiXumR" d="M4380 3910 c-58 -22 -124 -42 -147 -46 -31 -5 -43 -11 -43 -23 0 -14 15 -20 69 -28 66 -10 72 -14 123 -67 29 -31 61 -56 70 -56 10 0 18 -7 18 -15 0 -13 4 -14 23 -3 12 6 29 12 39 13 21 2 78 56 78 74 0 7 -20 40 -45 73 -48 63 -54 85 -30 94 8 4 15 10 15 15 0 19 -69 6 -170 -31z"></path></g></g><g id="l2Iq6s8twzrIvvPCW6BKP0M" fill="rgb(129,220,111)" style="transform: none;"><g style="transform: none;"><path id="px6h48drm" d="M5112 6561 c-8 -5 -12 -21 -10 -37 4 -35 36 -44 60 -17 32 36 -10 80 -50 54z"></path><path id="pMlQzt4Os" d="M2896 4518 c-26 -36 -19 -76 20 -129 20 -27 44 -54 54 -59 28 -15 67 -12 95 6 21 14 25 24 25 65 0 44 -5 54 -41 94 -38 41 -45 45 -90 45 -38 0 -51 -4 -63 -22z"></path><path id="p3eFUia5I" d="M3588 4119 c-10 -17 -18 -43 -18 -59 0 -37 -16 -80 -31 -80 -6 0 -35 -7 -65 -16 -47 -13 -54 -19 -54 -40 0 -30 27 -43 163 -79 128 -34 223 -46 362 -46 117 1 349 32 387 52 29 16 20 29 -19 29 -45 0 -190 38 -288 75 -78 29 -201 95 -290 155 -77 51 -122 54 -147 9z"></path></g></g><g id="l37scKEac8uYjmVmtDa5RSr" fill="rgb(250,111,97)" style="transform: none;"><g style="transform: none;"><path id="pUKS8Iu5s" d="M5983 5793 c-16 -3 -23 -12 -23 -26 0 -20 4 -22 45 -19 25 2 45 8 45 13 0 5 7 9 15 9 8 0 15 7 15 15 0 15 -43 18 -97 8z"></path><path id="phrJnpo1d" d="M4080 5213 c-46 -8 -42 -21 10 -32 71 -15 247 -85 292 -116 31 -21 39 -23 50 -12 7 8 27 18 43 24 25 8 31 16 33 45 3 35 3 35 -55 51 -122 35 -298 53 -373 40z"></path><path id="pXF2UobZ5" d="M6315 4004 c-56 -33 -303 -114 -370 -121 -110 -11 -59 -36 149 -73 87 -15 318 -12 415 5 46 8 86 16 88 19 9 9 -11 58 -26 63 -61 19 -90 38 -105 69 -9 19 -16 41 -16 49 0 25 -88 18 -135 -11z"></path></g></g><g id="l1iwAvoUNGJ8TZ9Kxikt0zq" fill="rgb(106,211,97)" style="transform: none;"><g style="transform: none;"><path id="pmUtyDw3l" d="M4470 6750 c-21 -21 -26 -69 -10 -99 5 -10 22 -24 38 -30 61 -25 123 35 101 98 -6 17 -19 36 -29 41 -31 16 -79 11 -100 -10z"></path><path id="p15e0qed1K" d="M4817 6570 c-53 -42 -43 -125 19 -155 69 -32 134 10 134 87 0 76 -91 117 -153 68z"></path><path id="p9plfaxeX" d="M6002 5008 c-32 -32 2 -79 43 -60 29 13 32 34 9 56 -19 19 -36 20 -52 4z"></path><path id="p7YGHabqM" d="M3178 4662 c-1 -4 -22 -23 -46 -42 -43 -34 -43 -34 -40 -109 3 -74 3 -74 43 -97 28 -15 41 -29 43 -48 5 -37 -34 -76 -75 -76 -18 0 -33 -4 -33 -9 0 -18 -67 -81 -86 -81 -27 0 68 -84 186 -164 143 -97 334 -183 290 -131 -10 12 -7 15 17 21 15 4 36 7 46 6 9 0 17 3 17 9 0 5 9 9 20 9 23 0 40 34 40 80 0 42 31 91 53 84 13 -4 17 0 17 18 0 15 -17 37 -53 67 -28 24 -87 76 -129 117 -43 41 -81 74 -86 74 -11 0 -52 44 -52 56 0 5 -9 17 -20 27 -15 12 -20 29 -20 63 0 34 -8 59 -27 90 -25 39 -32 44 -65 44 -20 0 -38 -4 -40 -8z"></path></g></g><g id="l2Wtbr2Dm9qAkbiPNWMqoQt" fill="rgb(247,88,77)" style="transform: none;"><g style="transform: none;"><path id="pvjRceG6r" d="M7157 6052 c-10 -11 -17 -36 -17 -61 0 -38 7 -51 51 -102 47 -55 54 -59 93 -59 56 0 76 22 76 82 0 48 -30 106 -73 140 -30 24 -109 24 -130 0z"></path><path id="pT0pJq7pT" d="M4445 5150 c-3 -6 4 -14 17 -19 23 -9 23 -9 -5 -20 -16 -6 -31 -11 -33 -11 -3 0 -13 -7 -22 -16 -15 -16 -13 -20 28 -53 25 -20 73 -62 106 -94 34 -32 64 -55 65 -50 2 4 31 21 65 37 58 27 62 28 92 12 17 -9 49 -16 72 -16 39 0 40 1 40 35 0 31 -5 37 -47 60 -27 15 -70 39 -98 55 -59 34 -213 90 -249 90 -14 0 -28 -5 -31 -10z"></path><path id="pPpGvvlLZ" d="M6857 4285 c-33 -29 -40 -30 -57 -10 -27 32 -71 18 -143 -45 -70 -61 -145 -115 -229 -164 -51 -29 -67 -66 -28 -66 11 0 20 -7 20 -15 0 -8 7 -30 16 -49 16 -32 42 -49 108 -70 22 -7 12 -21 -19 -29 -11 -3 0 -5 25 -6 56 -1 192 37 303 85 129 57 165 82 194 139 35 68 63 152 63 189 0 30 -2 31 -73 49 -102 24 -146 22 -180 -8z"></path><path id="plD1WBlHF" d="M5240 4249 c71 -64 229 -186 303 -233 70 -45 211 -116 229 -116 8 0 20 16 27 35 7 19 17 35 22 35 5 0 9 7 9 15 0 8 9 15 20 15 11 0 20 7 20 15 0 8 5 15 10 15 6 0 10 15 10 33 0 33 0 33 -112 51 -62 10 -140 29 -172 42 -33 13 -63 24 -68 24 -5 0 -33 11 -61 24 -29 13 -85 36 -125 52 -40 15 -75 31 -78 36 -3 4 -24 8 -47 8 -42 -1 -42 -1 13 -51z"></path><path id="paMY8mY7z" d="M5660 3760 c-47 -47 -2 -139 63 -126 44 9 67 33 67 73 0 44 -30 73 -75 73 -22 0 -43 -8 -55 -20z"></path><path id="pc0pKPaQL" d="M6369 3601 c-25 -20 -21 -44 10 -61 29 -15 66 21 52 49 -15 28 -37 32 -62 12z"></path></g></g><g id="l4juSzgb3bidUAZ3wqisfkr" fill="rgb(242,70,73)" style="transform: none;"><g style="transform: none;"><path id="pWJZfYxv9" d="M5722 6668 c-25 -25 -6 -68 30 -68 9 0 22 9 28 19 13 25 13 27 -6 45 -19 19 -36 20 -52 4z"></path><path id="pCwzlAaOt" d="M6095 6590 c-161 -25 -242 -60 -167 -72 15 -3 47 -10 72 -16 25 -6 79 -18 120 -28 41 -9 100 -29 130 -44 30 -15 76 -38 102 -50 67 -31 214 -137 279 -201 112 -110 176 -159 208 -159 25 0 31 4 31 23 0 12 9 33 20 47 11 14 20 35 20 47 0 12 5 25 10 28 6 3 10 23 10 43 -1 38 -22 73 -52 85 -35 13 -58 68 -58 138 0 66 0 66 -92 97 -51 17 -127 38 -168 47 -89 19 -376 28 -465 15z"></path><path id="pViqWT3en" d="M6850 5954 c0 -39 6 -54 38 -93 136 -164 214 -351 242 -581 14 -116 -3 -268 -42 -380 -30 -87 -96 -224 -129 -272 -22 -31 -27 -118 -6 -118 19 -1 -83 -90 -103 -90 -10 0 -41 -26 -69 -59 -39 -45 -51 -67 -51 -91 0 -27 3 -30 14 -21 11 9 18 6 32 -13 18 -24 21 -24 57 -11 22 7 50 24 63 36 23 21 28 22 67 11 65 -19 70 -20 96 -21 16 -1 21 -5 17 -16 -4 -11 1 -15 19 -15 18 0 25 7 30 30 3 16 17 52 31 80 13 27 24 62 24 77 0 16 5 71 12 124 10 79 9 114 -3 195 -15 105 -11 163 18 264 33 115 25 465 -12 536 -8 16 -15 34 -15 39 0 6 -8 22 -17 35 -29 41 -43 91 -43 158 0 78 -16 116 -71 169 -47 45 -110 73 -165 73 -34 0 -34 0 -34 -46z"></path><path id="piW7nXH58" d="M6500 4230 c-8 -5 -62 -28 -120 -51 -143 -57 -262 -79 -419 -79 -96 0 -132 -4 -147 -15 -18 -14 -17 -14 16 -15 35 -1 35 -1 11 -14 -18 -10 -20 -15 -10 -19 8 -3 5 -6 -8 -6 -37 -1 -26 -18 15 -25 56 -9 231 -6 282 5 25 5 100 15 166 23 121 13 123 14 215 70 51 31 96 56 101 56 5 0 8 17 6 38 -3 36 -4 37 -48 40 -25 1 -52 -2 -60 -8z"></path><path id="p1CFoAQmDt" d="M5315 3989 c-62 -36 -73 -103 -25 -151 28 -28 36 -30 78 -25 83 9 121 92 69 152 -25 30 -90 43 -122 24z"></path></g></g><g id="l1Oeibwv6gHAKtl5yR9qMc0" fill="rgb(80,199,99)" style="transform: none;"><g style="transform: none;"><path id="pNgxO8fsC" d="M3822 6854 c-27 -18 -28 -45 -4 -67 24 -22 35 -21 55 1 22 24 21 45 -1 65 -23 21 -22 21 -50 1z"></path><path id="pC9N0xvpd" d="M3780 6594 c-155 -24 -294 -66 -442 -136 -100 -47 -108 -53 -108 -80 0 -15 4 -28 8 -28 5 0 6 -19 3 -42 -5 -35 -10 -44 -29 -46 -12 -2 -40 -20 -61 -40 -30 -29 -40 -47 -45 -85 -4 -26 -14 -63 -22 -82 -8 -19 -14 -54 -14 -77 0 -24 -5 -59 -11 -78 -6 -19 -12 -79 -13 -132 -3 -98 -17 -141 -40 -118 -5 5 -27 10 -48 10 -37 0 -38 -1 -38 -35 0 -19 5 -44 12 -55 10 -15 9 -22 -6 -38 -13 -16 -26 -19 -57 -15 -32 5 -44 1 -63 -16 -23 -22 -23 -22 -49 8 -26 31 -78 43 -92 21 -9 -15 -35 0 -35 21 0 10 -6 19 -14 19 -14 0 -21 -24 -46 -164 -15 -87 -12 -305 5 -421 40 -265 155 -513 335 -722 55 -64 83 -89 103 -91 15 -2 27 2 27 8 0 6 5 8 10 5 6 -3 10 -2 10 4 0 5 6 16 13 23 7 7 18 22 25 33 6 11 12 14 12 7 0 -7 5 -10 11 -6 6 4 9 32 8 73 -3 50 1 72 14 91 18 26 23 55 8 45 -14 -8 -25 15 -29 61 -3 37 0 44 32 67 19 15 42 34 51 43 15 15 17 15 30 -2 28 -37 17 42 -14 104 -45 90 -80 201 -101 327 -16 96 -18 129 -10 193 27 206 45 270 118 422 88 182 241 349 413 450 30 18 57 37 61 44 12 18 9 76 -3 76 -20 0 11 29 95 87 91 62 79 56 237 117 110 43 236 76 287 76 12 0 22 6 22 14 0 15 -93 39 -213 57 -60 8 -296 10 -347 3z m-761 -2129 c47 -51 51 -76 17 -98 -29 -20 -47 -9 -93 55 -30 42 -31 47 -17 66 23 33 47 27 93 -23z"></path><path id="p8y5rLXlm" d="M4145 6395 c-5 -2 -31 -6 -57 -10 -47 -6 -48 -7 -48 -41 0 -34 0 -34 138 -34 214 0 377 -29 588 -105 65 -24 112 -35 151 -35 69 0 67 3 -75 110 -66 49 -118 81 -141 85 -20 4 -40 10 -46 15 -10 8 -491 22 -510 15z"></path><path id="pTEFkAa6G" d="M5603 5491 c-22 -18 -33 -36 -33 -54 0 -23 -4 -27 -30 -27 -28 0 -30 -2 -30 -37 0 -38 0 -38 98 -81 53 -23 135 -53 182 -66 47 -13 78 -26 70 -29 -8 -3 -46 -13 -85 -22 -163 -41 -348 -142 -627 -343 -146 -104 -148 -106 -148 -144 0 -37 1 -38 34 -38 25 0 57 15 114 53 85 57 91 57 138 10 29 -31 93 -32 101 -3 3 11 9 20 14 20 15 0 10 60 -6 76 -8 9 -15 20 -15 26 0 15 78 88 93 88 19 0 37 -21 37 -42 0 -10 7 -18 18 -18 9 0 26 -7 36 -15 23 -17 60 -20 51 -4 -8 12 119 132 209 199 98 72 211 120 340 145 39 8 26 17 -39 26 -108 14 -301 127 -420 245 -36 35 -67 64 -68 64 -1 -1 -17 -13 -34 -29z"></path><path id="pz0yhGHOq" d="M3276 4555 c5 -19 0 -30 -25 -51 -30 -25 -40 -57 -22 -68 5 -3 14 1 21 9 7 8 16 15 21 15 13 0 49 -33 49 -45 0 -12 42 -55 53 -55 4 0 44 -35 88 -78 83 -79 152 -132 174 -132 7 0 32 -9 56 -20 26 -11 66 -20 97 -20 52 0 52 0 52 33 0 32 -4 36 -82 75 -136 68 -207 119 -333 244 -119 117 -162 144 -149 93z"></path></g></g><g id="l6iu2KbGdHc6Wmk20zgGBaR" fill="rgb(219,40,112)" style="transform: none;"><g style="transform: none;"><path id="p14V603U6Z" d="M5218 6435 c-40 -22 -48 -78 -17 -111 31 -34 81 -33 108 2 28 35 26 69 -4 99 -27 28 -48 31 -87 10z"></path><path id="p15w2ZeLVm" d="M5780 6393 c-42 -8 -192 -53 -252 -75 -55 -20 -58 -22 -58 -54 0 -32 2 -34 35 -34 19 0 67 9 107 20 109 29 252 52 337 52 45 1 130 -10 208 -26 97 -19 147 -25 183 -20 51 7 51 7 48 42 -3 35 -5 36 -83 66 -79 30 -83 30 -290 32 -115 1 -221 0 -235 -3z"></path><path id="p13RBymdcT" d="M4825 5810 c-208 -209 -228 -231 -211 -243 16 -12 11 -19 -63 -90 -136 -130 -271 -217 -381 -247 -24 -7 -52 -18 -62 -25 -16 -10 -8 -13 53 -18 140 -12 340 37 526 127 119 58 399 236 566 359 40 30 114 81 165 115 88 60 92 64 92 99 0 36 0 36 -50 31 -38 -4 -65 -16 -117 -52 -68 -47 -68 -47 -75 -18 -5 16 -15 35 -23 42 -8 7 -15 23 -15 36 0 15 -10 29 -30 41 -16 9 -30 23 -30 29 0 19 -47 44 -82 44 -30 0 -56 -23 -263 -230z"></path><path id="pFirkpLdn" d="M4196 5404 c-19 -18 -19 -20 -6 -45 15 -27 56 -25 63 3 7 26 -8 58 -28 58 -7 0 -21 -7 -29 -16z"></path></g></g><g id="l4yLtCGdIPIjLxTmkX2ct2M" fill="rgb(87,201,70)" style="transform: none;"><g style="transform: none;"><path id="p7DWbMKWo" d="M3106 4434 c-15 -22 -17 -36 -11 -92 3 -37 8 -74 11 -83 7 -25 43 -12 82 28 30 32 32 39 26 82 -4 33 -13 52 -32 66 -36 28 -54 27 -76 -1z"></path><path id="pTm8DV7R0" d="M4825 4224 c-210 -94 -349 -126 -543 -125 -130 1 -268 23 -376 60 -33 12 -77 21 -98 21 -21 0 -53 7 -69 16 -17 8 -35 14 -41 12 -6 -2 18 -17 53 -33 49 -22 59 -30 42 -33 -12 -2 -43 6 -69 17 -26 12 -52 21 -59 21 -7 0 -36 15 -64 34 -50 34 -51 34 -51 11 0 -54 262 -232 445 -300 102 -39 244 -75 292 -75 50 0 206 54 304 106 128 67 416 278 418 307 1 4 -18 7 -41 6 -28 0 -78 -16 -143 -45z"></path></g></g><g id="l6kkxQAJm1ChiXPMNfxzN4C" fill="rgb(237,52,52)" style="transform: none;"><g style="transform: none;"><path id="p1FX1ITuNS" d="M6787 6418 c5 -88 24 -136 59 -152 10 -5 28 -20 38 -33 16 -21 16 -26 3 -41 -8 -9 -12 -23 -10 -29 3 -7 -5 -26 -16 -42 -12 -16 -21 -39 -21 -51 0 -19 -2 -20 -15 -10 -13 11 -15 8 -15 -21 1 -24 11 -46 35 -74 31 -36 35 -37 35 -17 0 26 0 26 37 10 15 -6 34 -12 42 -14 23 -4 102 -87 117 -121 8 -18 14 -61 14 -95 0 -67 14 -117 43 -158 9 -13 17 -29 17 -35 0 -5 7 -23 15 -39 34 -66 43 -374 13 -471 -34 -109 -40 -195 -23 -301 14 -88 14 -130 0 -206 -3 -13 6 -32 25 -51 17 -17 39 -50 51 -74 11 -24 25 -45 30 -49 5 -3 9 -16 9 -29 0 -24 17 -35 54 -35 17 0 38 21 82 80 116 159 206 362 249 565 22 103 30 335 16 447 -12 92 -54 266 -72 301 -12 21 -29 22 -29 2 0 -19 -65 -21 -77 -2 -4 7 -20 18 -35 24 -23 10 -28 19 -28 48 0 22 -5 35 -13 35 -7 0 -34 20 -60 44 -31 28 -55 42 -66 39 -12 -3 -33 14 -69 55 -57 65 -61 80 -34 105 26 23 45 21 76 -8 26 -24 26 -24 66 -4 34 18 40 26 40 52 0 26 -17 47 -108 137 -118 116 -208 181 -351 253 -131 65 -130 65 -124 -35z"></path><path id="p17KkDLztS" d="M7061 5650 c-1 -21 24 -89 37 -102 9 -9 12 -9 12 3 0 20 -48 117 -49 99z"></path><path id="pSxKxz3y7" d="M7142 5038 c-6 -24 -14 -63 -17 -88 -3 -25 -8 -56 -11 -70 -2 -14 4 -2 15 26 18 48 38 174 28 174 -2 0 -9 -19 -15 -42z"></path><path id="pkaO0jUts" d="M6955 4596 c-11 -6 -72 -63 -135 -126 -82 -82 -140 -129 -200 -165 -70 -41 -86 -55 -88 -78 -3 -21 0 -26 12 -21 28 11 41 -8 15 -22 -22 -12 -20 -13 32 -14 47 0 61 5 98 33 23 17 71 67 107 110 42 50 72 77 85 77 25 0 149 122 149 147 0 10 -5 25 -10 33 -9 13 -13 12 -30 -9 -19 -22 -20 -22 -20 -3 0 12 5 24 10 27 12 7 14 25 3 24 -5 -1 -17 -6 -28 -13z"></path><path id="pR1egKRK0" d="M6385 4085 c-16 -7 -69 -15 -117 -19 -48 -4 -120 -14 -160 -22 -43 -9 -112 -15 -168 -13 -129 3 -140 1 -140 -16 0 -8 -4 -15 -9 -15 -5 0 -15 -16 -22 -35 -7 -19 -19 -35 -26 -35 -36 0 -4 -21 77 -50 79 -29 99 -32 153 -27 78 8 301 83 396 133 64 34 87 54 62 54 -6 0 -11 13 -13 28 -3 28 -4 28 -33 17z"></path><path id="p9C2eOU4P" d="M6110 4080 c-25 -8 -25 -8 0 -8 14 0 39 4 55 8 30 8 30 8 0 8 -16 0 -41 -4 -55 -8z"></path></g></g><g id="l1NOAph55e5v9lkA7vjosV6" fill="rgb(215,34,91)" style="transform: none;"><g style="transform: none;"><path id="p13I2qU1x5" d="M5637 6437 c-117 -62 -262 -167 -414 -299 -94 -82 -113 -95 -124 -82 -17 21 -39 -1 -39 -38 0 -25 2 -28 14 -19 12 10 20 9 40 -4 14 -10 26 -21 26 -26 0 -12 38 -50 48 -46 4 1 9 -9 10 -23 2 -13 13 -35 23 -49 22 -27 25 -61 7 -80 -32 -34 69 13 152 69 55 38 108 61 97 43 -4 -6 -49 -38 -102 -73 -52 -35 -94 -65 -91 -67 6 -6 74 31 131 71 27 20 60 36 72 36 12 0 53 20 90 43 37 24 92 57 121 72 49 26 52 30 52 67 0 37 -1 38 -37 38 -23 0 -59 -12 -89 -28 -51 -28 -51 -28 -121 37 -92 87 -94 94 -33 120 27 12 53 21 58 21 6 0 12 6 15 13 3 7 45 25 93 41 141 45 144 46 99 39 -22 -3 -82 -16 -134 -29 -52 -13 -96 -22 -98 -20 -5 5 128 51 225 78 63 18 82 27 82 41 0 9 -11 22 -24 29 -17 7 -26 20 -28 41 -2 17 -7 32 -13 34 -5 1 -54 -21 -108 -50z"></path><path id="pVGr9L2OV" d="M6326 6322 c-3 -5 4 -12 16 -15 32 -9 18 -17 -30 -19 -33 -1 -42 -5 -42 -19 0 -12 18 -23 68 -38 147 -45 286 -126 428 -250 59 -51 89 -71 109 -71 23 0 26 2 15 15 -7 8 -10 24 -7 35 7 27 -71 121 -150 183 -32 25 -77 65 -99 90 -36 38 -52 47 -123 66 -101 27 -176 37 -185 23z"></path></g></g><g id="l6qQe5drs666pVx1vRccNnx" fill="rgb(59,183,83)" style="transform: none;"><g style="transform: none;"><path id="pMU8QUwRI" d="M4183 6534 c-35 -8 -115 -34 -178 -59 -64 -25 -119 -45 -124 -45 -13 0 -171 -108 -211 -144 -19 -18 -54 -45 -77 -60 -48 -32 -158 -144 -150 -153 3 -3 25 11 49 30 51 42 158 107 175 107 24 0 2 -27 -40 -50 -64 -35 -169 -114 -158 -118 6 -2 30 12 53 31 68 55 125 87 155 87 15 0 63 15 108 34 111 48 242 84 352 98 78 10 93 15 93 30 0 16 -10 18 -82 19 -72 1 -79 2 -53 12 34 12 512 11 530 -1 19 -14 125 -45 131 -39 29 28 -138 133 -320 201 -104 39 -148 43 -253 20z"></path><path id="p15ijfgC1e" d="M3174 6365 c-259 -180 -425 -395 -538 -697 -44 -119 -47 -160 -11 -176 34 -16 50 -15 64 2 10 12 18 8 48 -25 19 -21 41 -39 47 -39 7 0 25 13 41 30 28 29 28 29 53 10 13 -11 28 -20 31 -20 13 0 81 97 81 114 0 10 -10 26 -22 36 -13 10 -20 22 -15 26 4 4 17 -2 30 -14 30 -28 38 -28 68 4 21 23 24 35 26 120 1 51 7 110 12 131 6 21 11 57 11 81 0 23 6 58 14 77 8 19 18 56 22 82 5 38 15 56 47 86 25 25 46 37 58 34 22 -6 29 11 35 91 4 45 2 62 -7 62 -8 0 -5 8 6 20 37 41 -19 22 -101 -35z"></path><path id="pn1Y9vlqZ" d="M4318 6333 c12 -2 32 -2 45 0 12 2 2 4 -23 4 -25 0 -35 -2 -22 -4z"></path><path id="piTa89Ctp" d="M5405 4976 c-82 -55 -86 -73 -5 -21 90 58 87 55 69 55 -8 0 -37 -15 -64 -34z"></path><path id="pfkapJU3B" d="M5432 4945 c-83 -57 -112 -120 -72 -162 11 -13 16 -23 10 -23 -5 0 -10 -6 -10 -14 0 -26 -21 -28 -43 -4 -12 12 -39 32 -59 42 -36 20 -36 20 -110 -31 -88 -60 -122 -79 -117 -64 2 5 44 40 94 76 106 77 95 88 -13 13 -41 -28 -86 -54 -101 -57 -14 -3 -104 -58 -198 -121 -173 -115 -173 -115 -173 -152 0 -37 1 -38 35 -38 28 0 42 -8 71 -40 29 -32 43 -40 70 -40 32 0 34 2 34 33 0 26 6 36 25 45 15 7 27 8 30 2 4 -6 15 -10 26 -10 17 0 19 -7 19 -75 0 -109 16 -111 126 -11 46 40 53 44 65 30 11 -13 45 17 255 227 219 219 242 245 229 259 -8 9 -15 20 -15 25 0 12 -33 34 -52 35 -10 0 -18 7 -18 15 0 16 -39 75 -50 75 -3 0 -29 -16 -58 -35z"></path><path id="p127cj1pKi" d="M4942 4080 c-39 -24 -43 -63 -11 -104 27 -34 71 -35 104 -1 65 64 -14 153 -93 105z"></path></g></g><g id="l44vLVKxheJRnHwkAvkJEoj" fill="rgb(193,19,102)" style="transform: none;"><g style="transform: none;"><path id="ppkQ5ef6E" d="M5040 5321 c-29 -16 -115 -39 -285 -80 -26 -6 -30 -12 -33 -43 -3 -36 -2 -37 40 -48 117 -29 207 -55 243 -72 59 -26 123 -23 208 11 83 33 155 54 240 71 56 11 57 12 57 45 0 31 -2 34 -42 40 -59 10 -184 49 -238 74 -57 26 -142 27 -190 2z"></path></g></g><g id="l3NfxGENoW9S4cvc8xYfpgG" fill="rgb(208,26,69)" style="transform: none;"><g style="transform: none;"><path id="p91tI85rN" d="M5831 6525 c-107 -37 -108 -38 -108 -85 0 -67 21 -72 267 -74 205 -1 205 -1 290 -34 47 -18 126 -44 175 -57 50 -13 101 -28 115 -33 29 -11 176 -126 233 -180 20 -20 37 -31 37 -25 0 6 -28 36 -62 65 -34 29 -87 77 -117 107 -65 64 -212 170 -279 201 -26 12 -72 35 -102 50 -30 15 -89 35 -130 44 -41 10 -95 22 -120 28 -83 21 -122 19 -199 -7z"></path><path id="pdVw4Kd8I" d="M5625 6293 c-101 -24 -302 -112 -276 -121 26 -9 51 -36 51 -56 0 -11 2 -17 6 -14 3 3 35 -23 72 -58 78 -74 95 -77 173 -34 57 32 69 35 69 21 0 -4 -28 -23 -62 -41 -34 -19 -57 -35 -49 -38 7 -2 34 8 61 22 26 14 61 26 76 26 16 0 47 10 69 23 34 19 40 28 43 61 3 39 3 39 -48 34 -51 -5 -51 -5 -76 50 -13 30 -24 72 -24 93 0 38 -1 39 -32 38 -18 -1 -42 -3 -53 -6z"></path></g></g><g id="l3dQEUUfbQTEeN1jgA6Uypl" fill="rgb(227,37,38)" style="transform: none;"><g style="transform: none;"><path id="psnWVQOJZ" d="M7333 6083 c1 -15 -2 -28 -8 -28 -5 0 -21 -8 -34 -17 -24 -17 -24 -17 8 -64 17 -26 31 -55 31 -64 0 -26 -35 -53 -59 -45 -15 5 -21 2 -21 -9 0 -9 6 -16 13 -16 8 0 36 -20 63 -45 27 -25 54 -45 60 -45 7 0 10 -8 7 -19 -7 -26 12 -58 39 -67 13 -4 29 -16 37 -27 11 -15 21 -18 52 -13 21 3 40 2 44 -4 10 -17 35 1 35 26 0 61 -120 298 -206 408 -49 62 -64 69 -61 29z"></path><path id="p820kjjPq" d="M4740 5015 c0 -2 24 -17 53 -31 28 -15 47 -29 40 -31 -6 -2 -30 5 -52 16 -22 12 -46 21 -53 21 -23 0 -157 -65 -158 -77 0 -6 14 -23 30 -36 35 -30 36 -35 13 -53 -16 -12 -14 -13 19 -14 27 0 65 15 133 53 87 48 95 54 95 83 0 26 -6 33 -45 52 -43 21 -75 28 -75 17z"></path><path id="psLF13ZaA" d="M7158 4542 c-2 -9 -6 -44 -7 -76 -2 -35 -12 -79 -26 -110 -13 -28 -37 -89 -53 -136 -16 -47 -46 -118 -65 -157 -23 -48 -31 -73 -22 -73 29 0 175 108 271 202 57 56 104 104 104 108 0 4 -13 10 -30 14 -24 4 -30 11 -30 30 0 14 -4 27 -9 30 -5 4 -19 26 -30 50 -12 23 -35 56 -51 72 -16 16 -30 34 -30 41 0 20 -17 24 -22 5z"></path><path id="pjRaDoy3Y" d="M5400 4490 c-64 -35 -190 -163 -190 -194 0 -16 15 -28 63 -50 34 -16 80 -35 102 -42 22 -7 59 -22 82 -33 23 -12 46 -21 52 -21 5 0 31 -9 58 -21 47 -21 232 -59 282 -59 34 0 51 37 51 112 0 53 2 58 25 64 21 5 25 12 25 40 0 31 -4 37 -42 53 -24 10 -104 48 -178 85 -74 36 -142 66 -151 66 -8 0 -24 7 -35 15 -30 22 -84 17 -144 -15z"></path><path id="pJj56rPii" d="M6735 4275 c-38 -35 -75 -59 -100 -65 -59 -16 -82 -26 -167 -78 -83 -50 -91 -60 -82 -98 8 -30 15 -30 72 3 125 72 246 168 317 251 50 58 32 52 -40 -13z"></path><path id="pXiMUmmZh" d="M6507 4204 c-27 -14 -47 -28 -44 -30 5 -6 107 43 107 51 0 9 -15 4 -63 -21z"></path></g></g><g id="l6x3kqO2ngHWEeWQWC4yb6M" fill="rgb(48,162,68)" style="transform: none;"><g style="transform: none;"><path id="p4rIOsipQ" d="M4568 6261 c-29 -18 -78 -68 -78 -78 0 -21 -48 -73 -67 -73 -19 0 -23 -5 -23 -32 0 -18 4 -38 8 -44 4 -6 50 -33 102 -59 52 -26 126 -67 163 -91 54 -35 77 -44 112 -44 40 0 45 3 45 23 0 15 37 59 110 133 109 111 109 111 55 158 -33 28 -63 46 -79 46 -13 0 -75 18 -136 40 -121 43 -170 48 -212 21z"></path><path id="p14mcwPyFF" d="M4557 4446 c-78 -41 -78 -41 -75 -83 1 -23 -1 -45 -5 -49 -9 -9 -9 -62 -1 -143 7 -61 7 -61 46 -71 50 -14 142 11 315 86 69 30 131 54 138 54 8 0 11 27 10 88 -1 90 -7 114 -28 106 -7 -2 -24 7 -38 20 -28 26 -23 28 -97 -35 -8 -7 -11 -21 -8 -38 6 -23 2 -21 -37 20 -37 40 -47 46 -75 41 -33 -4 -46 13 -17 24 26 11 16 24 -17 23 -18 -1 -68 -20 -111 -43z"></path></g></g><g id="l1Fl07NNPchsltg05xxo7LQ" fill="rgb(206,22,24)" style="transform: none;"><g style="transform: none;"><path id="pUXN6UaqF" d="M4640 5219 c-25 -4 -125 -8 -222 -8 -151 -1 -178 -3 -178 -16 0 -8 2 -15 4 -15 63 0 346 -84 434 -129 42 -21 42 -21 42 8 0 16 5 33 11 36 5 4 14 18 19 31 6 14 18 24 30 24 29 0 25 24 -7 37 -28 11 -28 11 -6 18 13 4 20 11 17 16 -6 11 -81 10 -144 -2z"></path><path id="pVumCPZUf" d="M5245 4480 c-119 -120 -119 -120 -75 -165 40 -41 70 -57 70 -37 0 20 134 152 175 172 37 18 45 27 45 49 0 32 -54 101 -79 101 -9 0 -70 -54 -136 -120z"></path><path id="pJquZvYbL" d="M6576 4323 c-68 -25 -151 -48 -195 -54 -109 -14 -261 -2 -344 27 -63 22 -147 32 -147 18 0 -4 7 -12 17 -19 14 -11 13 -13 -10 -19 -25 -6 -27 -11 -29 -59 -2 -78 -2 -80 -15 -84 -7 -3 -10 -10 -7 -18 3 -8 -4 -16 -16 -20 -99 -31 230 -37 380 -7 117 24 288 89 366 141 33 21 82 52 110 70 28 17 59 40 69 51 18 20 17 20 -21 19 -21 -1 -92 -21 -158 -46z"></path></g></g><g id="l7O57AulTRjlB8OaC5cY0eb" fill="rgb(186,12,54)" style="transform: none;"><g style="transform: none;"><path id="pRESoywlF" d="M5847 6329 c-108 -12 -207 -31 -207 -40 0 -4 9 -11 20 -14 15 -5 20 -15 20 -43 0 -44 46 -158 67 -166 8 -3 27 1 43 9 57 30 50 6 -8 -25 -37 -21 -37 -21 18 -14 30 3 89 18 130 34 42 16 138 39 214 51 75 13 143 28 151 33 7 6 15 36 18 68 6 66 26 55 -176 93 -144 26 -176 28 -290 14z"></path></g></g><g id="l2rVcVQj9BYOMIIpZnIZtRv" fill="rgb(38,144,56)" style="transform: none;"><g style="transform: none;"><path id="pjVYsri7b" d="M4163 6333 c-43 -4 -43 -4 -43 -60 0 -47 -3 -56 -21 -60 -17 -5 -20 -12 -17 -46 3 -41 3 -41 105 -68 57 -14 126 -36 154 -48 28 -11 70 -21 92 -21 41 0 41 0 17 23 -25 22 -25 22 -1 25 25 4 56 34 66 65 18 53 101 109 161 109 24 0 42 3 40 7 -7 12 -200 58 -291 70 -77 11 -171 12 -262 4z"></path><path id="p13xhTHtvY" d="M4851 5965 c-40 -41 -61 -71 -57 -80 6 -17 -29 -22 -39 -5 -12 19 -25 10 -25 -18 0 -20 7 -30 28 -39 15 -7 39 -23 53 -36 25 -24 25 -24 55 3 16 15 49 48 73 73 45 47 45 47 23 76 -12 17 -22 36 -22 44 0 7 -6 21 -13 31 -11 16 -18 11 -76 -49z"></path><path id="p1G4xP3kYe" d="M5468 5532 c-101 -54 -108 -59 -108 -88 0 -27 7 -35 61 -67 53 -32 70 -37 118 -36 51 1 54 2 29 12 -37 15 -36 30 2 22 29 -6 30 -5 30 27 0 26 8 39 36 62 36 28 36 28 3 62 -32 33 -32 34 -13 49 18 13 17 14 -16 14 -23 0 -71 -19 -142 -57z"></path><path id="p6ynA5K9j" d="M4349 4349 c-87 -36 -145 -53 -230 -67 -114 -18 -114 -18 -117 -55 -3 -37 -3 -37 37 -37 30 0 41 -4 41 -15 0 -8 4 -15 10 -15 5 0 28 -20 52 -44 40 -40 47 -43 114 -50 69 -7 190 3 307 26 58 11 78 28 33 28 -14 0 -28 5 -31 10 -4 6 -10 8 -15 5 -20 -12 -36 7 -32 39 2 19 -1 37 -7 40 -13 8 -15 62 -2 70 15 10 22 69 9 77 -10 6 -8 12 7 23 19 15 18 15 -20 15 -24 -1 -88 -21 -156 -50z"></path></g></g><g id="l1x7xVqOyLS3YA81T1EcqPh" fill="rgb(186,13,15)" style="transform: none;"><g style="transform: none;"><path id="pwkbRnFNI" d="M6650 5805 c-8 -10 -30 -15 -61 -15 -49 0 -49 0 -49 -35 0 -39 3 -43 87 -93 99 -59 160 -111 228 -196 82 -101 138 -216 167 -336 12 -52 27 -98 32 -102 20 -14 66 -8 85 11 11 11 21 40 25 73 6 50 5 55 -16 65 -26 12 -58 96 -58 151 0 17 -7 43 -15 59 -8 15 -17 58 -21 95 -5 62 -8 70 -37 90 -18 12 -34 26 -36 31 -2 4 -14 12 -27 17 -21 8 -37 31 -86 125 -11 20 -33 40 -62 54 -54 25 -137 28 -156 6z"></path><path id="pzXvnPnTI" d="M4695 5200 c-4 -6 6 -7 27 -3 44 8 48 13 10 13 -17 0 -34 -4 -37 -10z"></path><path id="pEdFmW4KK" d="M4721 5157 c-5 -14 -15 -28 -20 -32 -6 -3 -11 -23 -11 -43 1 -33 6 -40 44 -64 24 -16 47 -28 50 -28 4 0 24 13 44 28 36 28 135 72 160 72 6 0 12 8 12 18 0 13 -19 23 -87 41 -48 14 -108 26 -135 29 -44 4 -48 2 -57 -21z"></path><path id="p1FW4sG6cD" d="M5470 4705 c-74 -74 -128 -135 -119 -135 14 0 53 -36 72 -66 4 -7 -3 -23 -14 -38 -26 -33 -19 -33 36 -1 43 26 43 26 78 5 19 -11 39 -20 43 -18 5 1 76 -30 158 -70 147 -72 280 -122 322 -122 12 0 27 7 34 15 7 8 19 15 26 15 8 0 14 5 14 10 0 6 6 10 13 10 25 0 57 40 57 71 0 41 15 66 50 84 25 13 30 22 30 50 0 34 -3 37 -72 69 -40 19 -108 42 -151 51 -77 17 -193 68 -356 159 -46 25 -84 46 -85 46 -1 0 -62 -61 -136 -135z"></path></g></g><g id="l33G36mN1k4I4FeH6ShEQcx" fill="rgb(161,6,43)" style="transform: none;"><g style="transform: none;"><path id="pAWmE3DTC" d="M6268 6255 c-10 -13 -18 -28 -18 -34 0 -5 8 -15 18 -20 15 -9 13 -12 -15 -23 -18 -7 -33 -18 -33 -25 0 -13 27 -19 125 -27 79 -7 305 -77 355 -110 26 -17 53 -26 77 -26 38 1 38 1 -12 47 -98 90 -239 171 -379 218 -91 30 -97 31 -118 0z"></path><path id="p2lL7UXuU" d="M5224 5705 c-155 -117 -445 -301 -569 -362 -145 -70 -272 -107 -425 -124 -161 -18 -168 -25 -38 -34 174 -11 489 -1 568 19 36 9 112 28 170 43 58 14 123 34 144 45 28 15 50 18 78 14 33 -5 53 2 150 50 62 31 115 58 118 61 3 2 -4 9 -14 15 -16 9 -10 15 50 47 56 29 70 41 72 63 4 30 -23 49 -86 63 -34 7 -52 34 -52 77 0 25 -53 78 -77 77 -10 0 -50 -25 -89 -54z"></path></g></g><g id="l6rCNBWuZpZvzgeYK1p2iFB" fill="rgb(23,119,43)" style="transform: none;"><g style="transform: none;"><path id="phmTqOo4v" d="M4046 6314 c-228 -41 -495 -173 -625 -308 -35 -36 -35 -36 3 -36 26 0 56 11 94 34 32 19 71 38 87 41 17 4 62 20 102 36 66 27 191 53 238 51 11 -1 62 -4 113 -8 78 -5 92 -4 92 9 0 8 -9 17 -20 20 -28 7 -25 24 5 31 23 6 24 9 19 58 -4 46 -2 54 18 70 23 18 23 18 -12 17 -19 0 -71 -7 -114 -15z"></path><path id="pAMuhpndp" d="M4948 6066 c-56 -61 -57 -63 -45 -97 7 -19 21 -47 32 -62 20 -27 20 -27 100 53 79 80 79 80 35 125 -24 25 -49 45 -55 44 -5 0 -36 -29 -67 -63z"></path><path id="pMvul5Kbz" d="M4409 6033 c-8 -2 -22 -16 -31 -31 -9 -15 -42 -51 -72 -80 -52 -49 -55 -56 -62 -112 -4 -41 -3 -60 4 -60 6 0 76 -31 154 -70 79 -38 146 -70 149 -70 13 0 239 223 239 237 0 7 -7 13 -15 13 -8 0 -15 4 -15 9 0 12 -107 79 -208 130 -76 38 -104 45 -143 34z"></path><path id="pzHvWTG0J" d="M3167 5633 c-42 -82 -68 -190 -87 -363 -12 -106 -9 -161 21 -307 10 -51 12 -53 43 -53 17 0 37 5 42 10 12 12 46 1 78 -24 16 -13 18 -24 12 -98 -7 -83 -7 -83 36 -131 24 -26 51 -47 59 -47 8 0 32 -9 54 -20 22 -11 44 -20 50 -20 6 0 22 -11 35 -25 13 -14 33 -25 44 -25 12 0 37 -13 57 -29 41 -34 148 -81 183 -81 61 0 297 79 405 136 63 33 71 40 71 66 0 33 4 32 -74 11 -86 -23 -233 -21 -311 5 -33 11 -82 25 -110 31 -68 17 -209 91 -280 149 -124 100 -228 264 -279 443 -28 97 -34 184 -22 312 9 92 0 113 -27 60z"></path><path id="pb3l4SbYo" d="M5460 5371 c-5 -11 -10 -38 -10 -59 0 -33 6 -45 35 -71 20 -17 40 -31 45 -31 4 0 22 -12 39 -26 24 -20 31 -34 31 -60 0 -19 6 -37 13 -40 7 -2 38 6 68 19 95 43 308 84 448 87 45 1 -60 30 -109 30 -80 0 -268 51 -387 105 -55 25 -107 45 -116 45 -9 0 -19 5 -22 10 -10 16 -23 12 -35 -9z"></path><path id="p88KNgyq2" d="M5445 5195 c-5 -2 -36 -9 -67 -15 -35 -7 -58 -17 -58 -24 0 -8 -7 -19 -15 -26 -21 -17 -18 -70 5 -100 25 -32 25 -40 0 -40 -11 0 -20 5 -20 10 0 6 -27 10 -60 10 -44 0 -60 -4 -60 -14 0 -7 -7 -19 -15 -26 -17 -14 -21 -95 -5 -105 6 -3 10 -19 10 -36 0 -16 2 -29 5 -29 9 0 230 154 233 162 2 4 8 8 14 8 5 0 38 17 73 38 57 33 65 41 64 67 0 21 -11 42 -39 70 -22 22 -40 43 -40 48 0 7 -8 8 -25 2z"></path><path id="p1Brc6XxFW" d="M3451 4374 c25 -31 125 -102 213 -152 96 -55 253 -111 382 -136 87 -17 246 -22 207 -6 -12 5 -45 32 -73 59 -29 28 -56 51 -61 51 -5 0 -9 7 -9 15 0 11 -11 15 -41 15 -51 0 -43 20 9 21 74 2 -68 28 -153 29 -98 0 -240 36 -338 85 -77 38 -162 50 -136 19z"></path></g></g><g id="l7ecbQYwiedgs5LZ0lPirHS" fill="rgb(143,7,27)" style="transform: none;"><g style="transform: none;"><path id="pUSCLaeHb" d="M5830 6072 c-60 -19 -242 -121 -382 -214 -153 -101 -187 -128 -158 -128 6 0 24 -13 40 -29 23 -22 30 -38 32 -70 1 -40 2 -42 49 -55 73 -22 91 -34 84 -57 -4 -10 -4 -19 -2 -19 2 0 78 41 168 92 185 103 314 161 394 178 36 7 55 16 55 26 0 8 -7 14 -15 14 -8 0 -24 8 -35 17 -25 21 -27 88 -4 121 21 31 15 86 -11 90 -11 2 -27 10 -35 17 -15 13 -153 26 -180 17z"></path><path id="pzu5vTYlL" d="M6228 5833 c-77 -3 -88 -6 -88 -22 0 -15 12 -19 76 -25 96 -9 188 -39 268 -87 64 -39 76 -40 76 -8 0 14 7 19 27 19 27 0 27 0 5 20 -27 26 -28 33 -2 25 14 -4 20 -2 20 8 0 42 -106 78 -219 75 -42 -1 -115 -4 -163 -5z"></path></g></g><g id="llmFnPzkGQT8Bg24Xi14Hy" fill="rgb(162,5,7)" style="transform: none;"><g style="transform: none;"><path id="p13SbIIlLx" d="M6465 5983 c-144 -21 -374 -99 -439 -148 -19 -15 -19 -15 3 -36 19 -18 30 -20 74 -15 285 31 358 29 455 -15 49 -23 101 -20 122 6 17 21 42 19 96 -6 29 -14 51 -34 62 -54 43 -82 62 -112 78 -126 9 -8 18 -12 18 -9 1 2 10 -3 21 -12 11 -9 30 -25 42 -35 19 -15 24 -30 26 -85 3 -40 11 -77 20 -92 10 -14 17 -40 17 -57 0 -56 32 -140 57 -152 29 -13 29 -37 0 -69 -24 -25 -47 -27 -47 -2 0 8 -6 14 -14 14 -12 0 -14 -21 -13 -112 1 -62 -2 -150 -7 -195 -14 -134 15 -102 82 88 98 279 43 671 -131 929 -112 167 -158 191 -360 189 -73 -1 -145 -4 -162 -6z"></path><path id="pzrQtDl7z" d="M6545 5730 c11 -5 29 -9 40 -9 17 -1 17 1 5 9 -8 5 -26 9 -40 9 -23 0 -23 -1 -5 -9z"></path><path id="prlx2gNKa" d="M4950 5120 c-101 -34 -190 -85 -190 -110 0 -5 19 -19 42 -31 37 -19 40 -23 25 -34 -25 -18 -21 -25 13 -25 18 0 67 20 118 49 48 27 106 57 130 66 32 13 42 23 42 40 0 18 -4 21 -24 18 -13 -3 -45 5 -71 16 -52 23 -50 23 -85 11z"></path><path id="pXUq4ZqQL" d="M6950 4665 c-18 -22 -188 -105 -214 -105 -12 0 -54 -9 -94 -20 -87 -24 -210 -26 -273 -5 -44 15 -44 16 -41 57 4 41 4 41 -28 34 -18 -3 -78 -6 -134 -6 -116 -1 -116 -4 9 -67 62 -32 68 -37 51 -47 -11 -6 -35 -25 -54 -42 -29 -27 -32 -35 -23 -52 15 -28 5 -49 -30 -64 -16 -7 -29 -16 -29 -20 0 -5 -6 -8 -14 -8 -7 0 -19 -7 -26 -14 -6 -8 -30 -16 -53 -18 -42 -3 -42 -3 18 -25 75 -27 273 -40 391 -24 48 6 136 29 215 58 134 47 134 47 230 143 84 83 179 206 179 232 0 14 -67 9 -80 -7z"></path></g></g><g id="l2MIqlGar89nWTBAwgZpiTp" fill="rgb(18,99,35)" style="transform: none;"><g style="transform: none;"><path id="p40djDWoq" d="M3855 6158 c-57 -12 -105 -30 -105 -39 0 -4 -13 -12 -30 -19 -37 -15 -70 -77 -70 -134 0 -68 22 -80 171 -94 128 -12 187 -27 249 -63 30 -19 165 -59 194 -59 6 0 12 20 13 43 3 39 10 51 66 108 35 35 68 72 74 82 5 10 27 21 53 25 45 8 45 8 15 24 -107 56 -270 106 -394 119 -149 17 -185 18 -236 7z"></path><path id="pLoGGmX5p" d="M4638 5746 c-65 -62 -118 -116 -118 -119 0 -3 25 -20 56 -38 56 -32 56 -32 170 82 63 63 114 118 114 124 0 13 -74 65 -92 65 -7 0 -66 -52 -130 -114z"></path><path id="paOAnxabU" d="M5386 5433 c-3 -4 -6 -20 -6 -37 0 -27 -8 -36 -60 -70 -33 -22 -60 -45 -60 -51 0 -12 108 -48 185 -61 40 -7 40 -7 13 -16 -16 -6 -28 -14 -28 -19 0 -9 66 -87 85 -101 5 -4 7 -9 5 -11 -13 -12 -118 -67 -128 -67 -6 0 -24 20 -41 43 -26 38 -28 46 -16 58 8 8 17 29 21 46 6 33 6 33 -47 17 -135 -40 -263 -99 -489 -224 -258 -143 -544 -290 -563 -290 -10 0 -17 -6 -17 -14 0 -8 -40 -33 -89 -58 -81 -39 -90 -46 -90 -71 -1 -15 7 -42 16 -60 12 -22 16 -53 15 -102 -3 -107 -6 -104 90 -87 210 35 559 223 943 506 65 49 72 57 68 83 -2 15 -9 38 -15 50 -9 18 -8 27 5 41 10 10 17 23 17 29 0 13 52 12 61 -1 4 -5 20 -8 35 -8 16 1 39 -4 51 -10 18 -9 34 -2 107 41 47 29 116 66 153 83 60 27 65 32 46 39 -18 6 -23 16 -23 42 0 36 -23 63 -75 90 -16 8 -41 27 -54 41 -21 22 -23 29 -13 51 6 14 17 25 24 25 7 0 0 9 -17 21 -49 33 -102 59 -109 52z"></path><path id="p12xUZZRFq" d="M3158 4953 c-7 -8 -21 -12 -34 -9 -22 6 -22 6 -8 -48 32 -121 110 -280 164 -333 85 -82 135 -113 238 -145 55 -17 81 -19 147 -14 135 11 155 16 155 38 0 10 -4 17 -10 13 -14 -9 -129 43 -169 76 -20 16 -45 29 -57 29 -11 0 -31 11 -44 25 -13 14 -29 25 -35 25 -6 0 -28 9 -50 20 -22 11 -46 21 -55 23 -8 1 -34 21 -56 45 -38 40 -42 47 -37 85 2 23 8 54 13 68 12 39 -11 71 -76 105 -30 16 -71 14 -86 -3z"></path><path id="pPSvZPogL" d="M3325 4936 c15 -20 29 -36 31 -36 10 0 -20 48 -38 59 -16 10 -15 6 7 -23z"></path></g></g><g id="l2ymocx3AnvdsUbT68ANUVp" fill="rgb(125,2,13)" style="transform: none;"><g style="transform: none;"><path id="pHiQ7ryhe" d="M6095 6149 c-107 -18 -250 -62 -261 -80 -13 -22 22 -37 76 -32 43 4 59 2 69 -11 7 -9 21 -16 31 -16 27 0 30 -10 10 -43 -11 -17 -17 -41 -14 -52 3 -11 1 -32 -5 -47 -7 -19 -6 -31 5 -47 15 -21 48 -28 58 -12 3 5 49 28 103 51 100 44 255 85 368 96 76 8 83 22 35 74 -24 26 -30 39 -25 60 6 26 3 28 -56 44 -55 16 -211 36 -264 35 -11 0 -69 -9 -130 -20z"></path><path id="p16hVGCcos" d="M6657 5558 c-2 -7 11 -40 29 -73 108 -199 93 -463 -37 -631 -129 -167 -265 -234 -477 -234 -66 0 -101 -4 -97 -10 4 -6 54 -10 118 -10 69 0 107 -4 101 -9 -5 -6 -29 -11 -54 -13 -53 -4 -56 -22 -4 -25 22 -1 45 -11 55 -22 46 -49 136 -38 194 25 68 73 108 94 181 94 63 0 64 0 94 42 16 22 30 46 30 53 0 7 9 20 20 30 11 10 20 26 20 36 0 10 6 24 13 31 6 7 22 34 35 58 24 49 30 138 10 158 -9 9 -9 18 0 37 14 31 16 87 3 101 -14 14 -16 77 -3 101 18 33 16 113 -3 113 -26 0 -105 80 -105 105 0 47 -9 55 -65 55 -34 0 -55 -5 -58 -12z"></path></g></g><g id="l7Uy71b4sTtRLDwq9Ppt7Fe" fill="rgb(107,1,2)" style="transform: none;"><g style="transform: none;"><path id="ppmIK1j5E" d="M6502 6081 c0 -31 8 -48 37 -80 37 -41 37 -41 117 -41 67 0 92 -6 164 -35 46 -19 87 -32 90 -28 6 6 -118 123 -132 123 -4 0 -26 12 -48 26 -38 25 -178 74 -212 74 -13 0 -17 -9 -16 -39z"></path><path id="pR7Qz2uDA" d="M6529 5733 c0 -5 -2 -18 -5 -30 -3 -17 10 -35 52 -75 30 -29 63 -65 72 -80 16 -27 42 -38 42 -18 0 15 47 12 53 -4 3 -8 3 -23 1 -33 -4 -14 9 -33 45 -66 28 -26 57 -47 66 -47 21 0 19 -29 -4 -64 -11 -16 -17 -38 -14 -50 3 -12 8 -37 10 -56 3 -19 9 -40 14 -46 5 -6 2 -28 -8 -54 -16 -40 -16 -44 0 -72 9 -16 17 -37 17 -46 0 -19 -39 -100 -57 -120 -7 -7 -13 -21 -13 -31 0 -10 -9 -26 -20 -36 -11 -10 -20 -23 -20 -30 0 -7 -14 -31 -30 -54 -30 -41 -32 -42 -74 -36 -60 9 -121 -19 -190 -88 -54 -55 -91 -72 -148 -68 -16 1 -28 -1 -28 -3 0 -13 106 -37 181 -41 70 -4 102 0 180 20 52 13 103 25 114 25 24 0 154 61 199 93 17 12 36 21 42 19 17 -4 52 88 65 171 25 164 -14 402 -88 537 -89 163 -216 290 -370 369 -42 21 -82 28 -84 14z"></path></g></g><g id="l3oCD6FNoKP5MAkHrmxFaU3" fill="rgb(10,74,23)" style="transform: none;"><g style="transform: none;"><path id="p8eNHXVoO" d="M3720 6127 c-36 -13 -74 -28 -85 -34 -11 -6 -36 -13 -56 -17 -19 -3 -60 -22 -90 -41 -30 -19 -59 -35 -66 -35 -24 0 -213 -242 -213 -272 0 -17 59 -7 94 17 105 71 252 124 364 132 60 4 82 10 82 19 0 8 -4 14 -10 14 -15 0 -60 42 -60 56 0 30 43 93 70 104 17 7 30 16 30 21 0 5 6 9 13 9 8 0 24 11 37 25 23 25 23 25 -11 25 -19 0 -63 -11 -99 -23z"></path><path id="pw4Ms5WMn" d="M3793 5903 c-7 -3 -13 -13 -13 -22 0 -10 -8 -25 -17 -34 -53 -49 -66 -59 -89 -67 -14 -6 -40 -10 -57 -10 -25 0 -49 -13 -98 -54 -35 -29 -71 -67 -79 -82 -8 -16 -26 -42 -40 -57 -24 -28 -25 -33 -27 -180 -1 -84 1 -173 4 -199 5 -48 5 -48 42 -48 43 0 46 5 75 164 24 129 65 205 161 302 86 87 164 132 263 153 75 16 220 14 278 -4 99 -30 112 -12 14 20 -30 10 -71 29 -91 42 -56 37 -131 62 -206 68 -37 4 -77 8 -88 10 -11 1 -26 1 -32 -2z"></path><path id="pp20hG84T" d="M5255 5378 c-119 -60 -119 -60 -56 -89 35 -16 71 -29 81 -29 19 0 170 98 170 111 0 4 -10 11 -22 15 -20 6 -20 8 -5 19 15 11 14 13 -9 23 -14 7 -28 12 -32 11 -4 0 -61 -27 -127 -61z"></path><path id="p18hT9h7lk" d="M3260 4594 c0 -5 7 -21 16 -34 26 -38 187 -200 200 -200 6 0 42 -15 80 -34 38 -19 103 -44 144 -56 93 -27 298 -41 390 -28 73 11 113 27 68 28 -34 0 -41 21 -29 85 5 27 6 56 1 64 -33 68 -40 94 -29 107 22 27 2 24 -102 -12 -138 -48 -186 -60 -297 -73 -84 -10 -99 -10 -157 8 -83 26 -121 46 -168 87 -20 19 -47 34 -59 34 -12 0 -30 7 -40 17 -10 9 -18 12 -18 7z"></path></g></g><g id="l5Cso35v9JsgQlabn77guKq" fill="rgb(3,51,14)" style="transform: none;"><g style="transform: none;"><path id="pNFLpVThF" d="M3575 5904 c-100 -26 -214 -75 -319 -139 -51 -31 -80 -95 -96 -212 -35 -273 92 -593 305 -766 94 -76 242 -144 353 -163 128 -21 155 -15 64 15 -145 47 -261 146 -331 281 -49 94 -71 180 -71 283 0 42 -4 77 -8 77 -4 0 -16 -22 -27 -50 -11 -28 -22 -50 -26 -50 -12 0 -19 76 -10 108 6 19 6 59 -1 104 -11 85 -5 129 23 154 11 10 27 33 36 51 23 50 137 141 176 141 41 0 80 16 109 42 56 51 68 66 63 78 -3 8 7 15 26 19 22 4 27 9 19 17 -11 11 -247 19 -285 10z"></path></g></g></svg>