<svg class="img-fluid" id="outputsvg" xmlns="http://www.w3.org/2000/svg" style="transform: matrix(1, 0, 0, 1, -1.43711, 2.81836); transform-origin: 50% 50%; cursor: move; max-height: 368.56px; transition: transform 200ms ease-in-out;" width="448" height="480" viewBox="0 0 4480 4800"><g id="l64vI1VJ1Sw3IaIsirM3gGB" fill="rgb(232,125,123)" style="transform: none;"><g style="transform: none;"><path id="pDUMaSeg3" d="M2100 4316 c-143 -32 -459 -249 -573 -395 -93 -118 -258 -434 -342 -651 -76 -198 -142 -485 -155 -665 -9 -133 1 -342 22 -420 30 -118 129 -239 223 -274 68 -26 169 -28 246 -5 77 23 145 95 179 189 23 65 25 83 25 245 0 174 -1 176 -44 339 -40 154 -43 173 -44 305 -1 140 20 277 45 292 14 9 33 -22 74 -126 21 -52 48 -118 60 -146 12 -28 28 -69 35 -92 11 -38 19 -46 75 -73 90 -45 184 -126 237 -206 26 -39 49 -77 53 -86 10 -26 17 -21 54 41 63 106 193 224 293 266 20 8 37 20 37 26 0 16 85 229 130 323 40 85 46 86 71 12 10 -29 14 -93 13 -230 0 -173 -3 -199 -27 -286 -57 -210 -70 -404 -38 -544 25 -108 34 -128 81 -179 61 -66 124 -89 229 -84 150 7 243 69 308 203 44 93 73 244 73 381 0 232 -98 651 -212 909 -22 50 -56 125 -74 167 -83 185 -174 327 -282 436 -109 111 -227 197 -365 265 -105 51 -130 60 -206 68 -108 11 -132 10 -201 -5z"></path><path id="pwCh8yr9k" d="M3625 3024 c16 -27 44 -74 62 -104 105 -174 181 -542 153 -741 -36 -250 -189 -544 -358 -684 -79 -65 -221 -138 -312 -159 -151 -36 -372 -11 -523 58 -161 73 -256 162 -359 336 -28 47 -51 86 -53 88 -2 2 -20 -25 -41 -60 -88 -147 -197 -255 -358 -352 -103 -62 -140 -75 -255 -84 -299 -26 -541 74 -717 292 -95 119 -189 326 -234 516 -27 116 -23 222 15 410 40 196 70 277 167 443 22 38 38 71 35 73 -2 2 -24 -7 -48 -20 -73 -40 -186 -73 -332 -97 -137 -23 -137 -23 -163 -103 -34 -107 -53 -247 -60 -441 -12 -307 56 -616 203 -922 75 -156 267 -423 377 -526 139 -130 345 -285 466 -350 132 -72 360 -155 485 -176 290 -51 635 -53 850 -7 240 52 350 95 605 236 185 101 408 291 518 440 118 159 138 187 171 235 94 138 226 491 256 686 34 220 38 287 26 428 -15 183 -38 329 -64 414 -23 71 -23 71 -117 84 -121 17 -256 55 -340 96 -36 18 -69 34 -74 36 -5 2 3 -18 19 -45z"></path></g></g></svg>