<svg class="img-fluid" id="outputsvg" xmlns="http://www.w3.org/2000/svg" style="transform: matrix(1, 0, 0, 1, 0, 0); transform-origin: 50% 50%; cursor: move; max-height: 368.56px; transition: transform 200ms ease-in-out;" width="1024" height="1024" viewBox="0 0 10240 10240"><g id="l583ZtY0WFUqVHO5dShfYM0" fill="rgb(0,0,0)" style="transform: none;"><g style="transform: none;"><path id="prKGtGiqj" d="M0 5120 c0 -5120 0 -5120 5120 -5120 5120 0 5120 0 5120 5120 0 5120 0 5120 -5120 5120 -5120 0 -5120 0 -5120 -5120z"></path></g></g><g id="l1KNhPy9RLwNmU3RkYxXBhm" fill="rgb(255,255,255)" style="transform: none;"><g style="transform: none;"><path id="p1CwOPQ7HG" d="M0 5120 c0 -5120 0 -5120 5120 -5120 5120 0 5120 0 5120 5120 0 5120 0 5120 -5120 5120 -5120 0 -5120 0 -5120 -5120z m7599 1976 c-7 -8 -268 -56 -301 -56 -17 0 -72 -20 -123 -46 -74 -37 -102 -46 -143 -46 -48 1 -53 -2 -82 -39 -37 -46 -58 -49 -119 -14 -44 25 -44 26 -65 6 -25 -24 -68 -41 -102 -41 -24 0 -24 0 10 -68 163 -324 305 -778 417 -1330 21 -107 41 -197 44 -200 10 -10 17 31 12 66 -6 34 -5 35 8 18 14 -18 15 -18 15 -2 0 9 -7 31 -16 47 -17 35 -12 48 11 29 20 -16 20 -1 0 47 -21 49 -18 53 11 18 25 -29 25 -29 19 -5 -4 14 -15 44 -26 68 -20 48 -11 55 20 15 28 -39 26 -12 -4 47 -31 62 -31 69 0 40 38 -36 38 -19 0 41 -41 65 -43 77 -10 55 14 -9 25 -14 25 -12 0 3 -12 37 -26 76 -14 40 -24 74 -21 76 9 10 114 -115 144 -171 73 -139 60 -320 -33 -442 -14 -18 -21 -33 -16 -33 11 0 45 37 72 80 22 35 22 35 17 -2 -3 -21 -2 -38 4 -38 5 0 9 6 10 13 0 6 14 39 30 72 29 60 29 60 25 16 -6 -54 6 -43 29 29 24 74 35 84 36 29 1 -44 1 -43 28 39 27 79 41 95 41 45 0 -41 18 -24 29 27 6 28 11 59 11 70 0 10 4 22 10 25 6 3 10 -3 10 -14 0 -46 19 -25 46 52 28 82 28 82 38 27 6 -36 5 -86 -3 -145 -22 -171 -106 -288 -263 -364 -46 -22 -75 -40 -65 -40 10 -1 36 9 59 20 42 21 42 21 25 -5 -24 -36 -13 -33 51 15 53 41 55 41 48 15 -9 -36 3 -33 49 14 49 50 64 51 34 3 -27 -44 -19 -39 59 30 46 41 61 43 42 7 -22 -42 0 -32 51 21 45 48 50 51 45 27 -4 -16 -4 -28 -1 -28 2 0 34 25 71 56 36 31 67 54 69 52 8 -8 -58 -127 -99 -179 -51 -66 -163 -142 -230 -158 -59 -14 -215 -15 -271 -2 -49 12 -60 5 -16 -10 20 -7 30 -16 27 -25 -4 -10 9 -15 46 -20 48 -7 50 -7 27 -20 -22 -12 -18 -13 46 -14 68 -1 69 -1 42 -16 -33 -18 -35 -26 -4 -20 12 3 42 7 67 10 45 6 45 6 10 -15 -35 -20 -35 -20 30 -15 36 3 73 8 83 11 31 13 18 -10 -18 -29 -19 -11 -33 -21 -31 -23 2 -2 40 5 85 15 44 11 81 17 81 13 0 -3 -12 -14 -27 -23 -28 -17 -27 -17 57 -18 85 -1 85 -1 19 -35 -82 -42 -212 -70 -286 -61 -105 12 -248 88 -306 161 -16 20 -32 34 -35 30 -3 -3 14 -26 39 -51 29 -31 36 -42 20 -34 -47 24 -16 -14 40 -48 54 -33 54 -33 14 -28 -40 4 -40 4 -14 -17 15 -12 44 -32 65 -44 39 -23 39 -23 -3 -17 -24 4 -43 4 -43 1 0 -3 32 -25 70 -47 39 -22 70 -43 70 -44 0 -2 -19 -2 -42 1 -43 5 -43 5 25 -37 37 -22 67 -43 67 -46 0 -3 -15 -3 -32 1 -31 6 -29 2 40 -65 41 -38 67 -70 58 -70 -30 0 -192 63 -227 89 -41 30 -119 117 -119 133 0 6 -3 8 -7 5 -6 -7 -63 70 -63 84 0 4 -7 24 -16 45 -17 39 -17 39 -30 -20 -28 -118 -81 -195 -184 -266 -55 -37 -157 -86 -165 -79 -2 3 23 34 55 69 33 36 59 68 60 73 0 4 -14 0 -31 -9 -45 -23 -33 -3 34 55 59 51 61 64 7 36 -44 -23 -37 -8 23 47 47 45 48 50 2 32 -34 -14 -11 13 38 44 40 25 45 32 25 27 -16 -3 -28 -3 -28 0 0 2 17 21 38 41 31 30 33 35 15 31 -29 -6 -29 -5 3 43 14 21 24 45 22 52 -3 7 -19 -14 -35 -47 -42 -82 -114 -147 -221 -198 -85 -41 -89 -42 -192 -42 -106 0 -225 21 -199 35 8 4 39 13 69 20 74 17 79 22 45 36 -29 13 -28 13 30 15 33 0 71 4 85 8 25 7 24 8 -8 15 -50 12 -30 23 54 31 51 5 72 10 63 16 -8 5 -24 9 -36 9 -46 0 -21 18 35 25 31 3 66 10 77 15 17 7 16 9 -10 9 -62 2 -58 18 7 30 85 16 107 31 48 31 -45 0 -45 0 5 24 50 23 105 70 60 51 -124 -52 -274 -57 -385 -12 -63 26 -63 26 -102 -18 -24 -27 -65 -57 -106 -77 -67 -33 -67 -33 -1019 -36 -953 -2 -953 -2 -953 -371 0 -334 2 -375 20 -447 53 -208 184 -377 370 -474 110 -57 208 -80 340 -80 207 0 362 64 511 210 75 75 93 99 137 190 67 139 82 215 82 425 0 96 4 175 10 186 10 18 23 19 195 19 172 0 185 -1 195 -19 25 -48 3 -431 -35 -576 -134 -526 -653 -885 -1206 -834 -473 44 -876 381 -988 827 -35 137 -41 227 -41 588 0 354 0 354 -27 360 -54 13 -145 68 -183 111 -38 43 -39 44 -67 29 -45 -23 -146 -46 -200 -46 -43 0 -156 24 -218 45 -33 12 30 -40 68 -56 32 -14 32 -14 -8 -19 -40 -6 -40 -6 15 -22 30 -9 69 -19 85 -24 29 -8 29 -8 -15 -14 -45 -6 -45 -6 -5 -18 22 -6 55 -12 73 -12 17 0 32 -4 32 -10 0 -5 -13 -10 -30 -10 -16 0 -30 -4 -30 -10 0 -5 17 -10 38 -11 20 0 55 -3 77 -7 42 -8 38 -17 -13 -32 -20 -5 -4 -9 63 -15 84 -8 88 -9 60 -20 -30 -13 -30 -13 25 -29 29 -9 62 -16 71 -16 10 0 20 -4 23 -9 9 -13 -79 -33 -175 -38 -142 -9 -259 37 -376 148 -66 64 -97 78 -68 32 10 -16 27 -39 39 -52 21 -24 21 -24 -2 -12 -41 22 -36 4 7 -25 46 -30 52 -39 20 -29 -20 7 -21 6 -8 -12 8 -11 29 -33 47 -48 41 -34 36 -41 -14 -21 -38 15 -37 14 26 -45 58 -53 62 -59 35 -53 -29 7 -27 5 28 -58 31 -36 57 -68 57 -71 0 -11 -103 33 -155 66 -102 66 -152 134 -190 265 -22 73 -22 73 -40 25 -22 -58 -65 -136 -73 -129 -2 3 -17 -14 -33 -37 -16 -24 -47 -58 -70 -77 -44 -35 -229 -114 -255 -108 -9 2 11 26 55 63 38 33 70 64 70 68 1 5 -14 6 -31 2 -28 -6 -24 0 35 39 37 26 67 48 67 51 0 2 -15 -1 -32 -6 -41 -11 -41 -11 -33 1 4 6 36 29 71 52 69 43 77 55 25 37 -39 -14 -52 -6 -20 12 13 6 42 25 64 41 40 30 40 30 0 23 -40 -7 -40 -7 6 23 54 35 68 52 43 52 -14 0 -11 7 14 33 55 56 35 51 -30 -8 -35 -31 -96 -73 -137 -93 -71 -35 -80 -37 -166 -36 -97 1 -172 18 -264 62 -56 27 -56 27 29 30 85 3 85 3 60 22 -31 24 -15 25 60 5 75 -20 91 -19 53 5 -18 11 -33 23 -33 26 0 3 21 3 48 0 26 -4 63 -9 82 -12 35 -5 35 -5 -3 16 -22 12 -37 23 -35 26 3 2 29 0 58 -6 29 -5 59 -10 66 -10 24 0 15 17 -11 24 -46 12 -26 21 37 18 63 -3 63 -3 38 17 -25 21 -25 21 35 21 48 1 57 3 43 13 -14 10 -12 13 20 28 37 18 37 18 -8 11 -25 -4 -94 -7 -155 -7 -98 0 -116 3 -167 27 -86 40 -144 83 -187 141 -39 52 -103 168 -96 175 2 2 28 -17 59 -42 31 -25 65 -50 77 -56 19 -11 20 -10 10 9 -26 48 -6 41 49 -19 59 -64 60 -64 45 -26 -8 21 -15 41 -15 43 0 3 28 -20 62 -51 62 -57 83 -66 54 -24 -33 46 -14 41 39 -12 56 -55 68 -60 39 -14 -24 36 -11 39 27 6 43 -37 85 -60 74 -40 -5 7 -15 21 -23 31 -20 22 -16 22 42 -8 27 -14 57 -25 65 -24 9 0 -12 13 -46 29 -174 80 -261 194 -285 372 -12 88 0 225 16 183 63 -171 59 -163 69 -125 10 35 10 34 26 -42 18 -86 31 -109 31 -55 0 45 16 56 24 17 3 -17 14 -56 23 -88 18 -57 18 -57 23 -7 5 50 5 50 35 -35 30 -85 30 -85 33 -42 3 44 3 44 37 -25 34 -68 34 -68 34 -29 1 40 1 40 26 -11 14 -28 32 -54 40 -57 20 -7 20 -7 -20 60 -46 77 -59 123 -58 214 2 124 52 236 147 330 26 24 46 42 46 39 0 -3 -11 -38 -24 -77 -24 -69 -23 -85 2 -60 24 24 24 -2 0 -44 -14 -24 -28 -52 -32 -63 -7 -18 -5 -18 17 3 38 35 39 26 6 -39 -33 -67 -33 -85 0 -43 32 41 36 22 7 -35 -31 -61 -34 -83 -5 -47 30 38 34 26 10 -29 -26 -59 -26 -63 -1 -40 24 22 25 12 5 -46 -13 -39 -13 -42 0 -25 14 18 15 17 15 -26 0 -26 5 -50 10 -53 6 -3 10 -4 10 -2 0 3 18 97 40 209 92 473 238 946 390 1264 58 122 58 122 18 127 -22 3 -56 16 -76 29 -37 24 -37 24 -77 1 -57 -33 -78 -30 -115 17 -30 37 -35 40 -83 40 -53 0 -114 22 -167 60 -21 15 -68 27 -162 41 -330 49 -441 47 2236 48 1369 1 2487 -1 2485 -3z m-1651 -4216 c28 -12 65 -38 82 -56 54 -62 61 -110 58 -400 -3 -259 -3 -259 -61 -262 -52 -3 -59 -1 -64 17 -3 12 -6 21 -7 21 0 0 -23 -11 -50 -25 -69 -35 -153 -35 -223 0 -89 45 -135 129 -136 250 0 111 46 196 131 239 88 44 179 42 245 -5 27 -20 27 -20 27 11 0 46 -27 90 -65 106 -66 27 -128 14 -182 -38 -31 -30 -31 -30 -77 -13 -62 24 -62 53 -3 110 79 75 212 94 325 45z m-654 -201 c35 -16 41 -16 51 -3 8 11 25 14 65 12 55 -3 55 -3 58 -163 1 -87 -2 -182 -8 -210 -13 -63 -58 -121 -114 -146 -46 -21 -140 -25 -199 -8 -62 17 -137 95 -137 143 0 8 20 21 50 31 49 16 49 16 88 -24 34 -36 44 -41 84 -41 53 0 98 29 98 64 0 22 -5 23 -87 29 -49 3 -109 13 -135 22 -82 29 -130 107 -114 186 23 114 173 169 300 108z m1252 9 c48 -21 90 -56 109 -92 23 -42 12 -60 -47 -78 -37 -11 -41 -10 -61 14 -12 14 -32 31 -44 37 -31 15 -99 14 -132 -3 -28 -15 -61 -56 -61 -75 0 -7 69 -12 188 -13 187 -3 187 -3 190 -53 7 -102 -40 -192 -125 -242 -43 -25 -58 -28 -133 -28 -97 0 -128 13 -190 76 -48 50 -70 113 -70 203 0 137 72 230 205 267 38 10 134 3 171 -13z m-2616 2 c4 0 13 -15 20 -32 7 -18 50 -114 94 -213 81 -180 81 -180 86 30 5 210 5 210 31 219 14 5 42 6 62 2 37 -7 37 -7 37 -361 0 -340 -1 -355 -19 -365 -23 -12 -100 -13 -118 -2 -15 9 -69 126 -164 346 -68 159 -68 159 -106 75 -22 -46 -72 -159 -113 -251 -73 -168 -73 -168 -141 -168 -52 0 -68 4 -73 16 -9 24 -7 677 3 692 5 9 26 12 67 10 59 -3 59 -3 64 -208 5 -204 5 -204 31 -140 15 36 55 129 89 207 55 126 65 142 89 146 14 2 32 2 39 0 8 -1 17 -3 22 -3z m585 -265 c0 -260 0 -260 -60 -260 -60 0 -60 0 -63 250 -1 137 0 256 3 263 3 9 22 12 62 10 58 -3 58 -3 58 -263z m245 100 c4 -104 10 -169 19 -185 25 -46 51 -60 119 -60 62 0 62 0 62 -60 0 -56 -2 -60 -26 -66 -41 -10 -114 2 -144 24 -28 21 -28 21 -33 1 -5 -18 -12 -20 -64 -17 -58 3 -58 3 -61 253 -1 137 0 256 3 263 3 9 22 12 62 10 58 -3 58 -3 63 -163z m-267 -426 c30 -16 37 -28 37 -68 0 -89 -120 -114 -149 -31 -24 71 46 133 112 99z"></path><path id="phDXEsC0X" d="M3940 7061 c-56 -18 -110 -53 -153 -101 -81 -90 -77 -38 -77 -970 0 -727 2 -833 16 -880 29 -96 166 -210 255 -210 25 0 30 -24 24 -119 -3 -47 -2 -234 3 -416 11 -368 18 -416 91 -586 105 -244 331 -467 580 -570 427 -178 911 -81 1236 247 136 137 230 304 282 502 24 90 26 114 27 322 1 225 1 225 -169 225 -170 0 -170 0 -177 -190 -4 -144 -11 -209 -27 -270 -71 -270 -276 -479 -541 -551 -99 -27 -291 -25 -393 4 -243 69 -428 242 -508 474 -44 129 -49 187 -49 565 0 352 0 352 958 355 957 3 957 3 1020 32 81 38 152 113 175 188 16 48 17 128 15 893 -3 840 -3 840 -26 887 -30 60 -90 120 -150 150 -47 23 -47 23 -1217 25 -643 1 -1181 -2 -1195 -6z m1420 -502 c0 -6 -22 -102 -49 -213 -72 -294 -70 -266 -18 -302 31 -22 54 -50 76 -94 97 -195 -35 -414 -249 -414 -190 0 -328 178 -276 356 18 64 63 129 109 160 33 21 33 21 -20 256 -29 129 -53 240 -53 248 0 12 42 14 240 14 171 0 240 -3 240 -11z"></path><path id="poI1AMtsH" d="M4973 6543 c-40 -2 -63 -8 -63 -16 0 -7 23 -113 52 -236 52 -223 52 -223 28 -243 -91 -71 -122 -122 -128 -215 -5 -71 8 -116 48 -172 59 -81 182 -120 286 -92 134 36 214 194 169 331 -17 51 -82 130 -129 155 -17 10 -16 21 39 244 31 128 55 234 53 236 -6 6 -292 12 -355 8z"></path><path id="pqrW45e9L" d="M6560 5908 c0 -383 -3 -703 -6 -712 -4 -9 5 -25 22 -41 38 -35 49 -31 24 10 -12 19 -19 35 -15 35 3 0 32 -17 63 -38 83 -56 91 -59 55 -21 -47 50 -41 54 22 14 75 -48 97 -56 68 -23 -35 37 -28 39 33 6 59 -32 79 -31 49 2 -22 24 -18 25 28 5 41 -17 67 -19 67 -6 0 5 -17 12 -37 16 -105 19 -244 127 -291 226 -34 71 -58 268 -34 282 4 3 23 -31 42 -74 35 -80 35 -80 46 -47 11 33 11 33 34 -42 24 -75 24 -75 30 -30 5 45 5 45 28 -15 36 -95 43 -107 36 -57 -7 52 2 54 23 5 41 -98 36 -92 42 -53 6 35 6 35 39 -30 31 -63 32 -64 27 -26 -4 39 -4 39 12 15 30 -45 67 -79 86 -79 13 0 17 5 13 18 -3 9 -26 100 -51 202 -56 227 -173 579 -252 760 -33 74 -91 194 -131 265 -72 130 -72 130 -72 -567z"></path><path id="p11dAlkevL" d="M3618 6488 c-123 -224 -198 -399 -291 -678 -57 -171 -163 -577 -154 -587 9 -9 65 36 84 67 23 39 31 38 25 -2 -6 -42 1 -36 38 38 30 59 30 59 30 24 1 -35 1 -34 36 30 35 65 35 65 30 21 -5 -53 6 -40 30 34 22 68 34 78 34 30 0 -51 13 -33 37 50 17 59 17 59 26 25 9 -35 9 -35 20 -10 6 14 24 52 40 85 28 60 28 60 25 -55 -3 -99 -7 -123 -30 -173 -31 -65 -116 -161 -168 -187 -19 -9 -60 -25 -90 -35 -30 -10 -59 -21 -64 -26 -16 -14 21 -11 61 6 47 20 48 19 29 -10 -9 -14 -14 -25 -11 -25 3 0 28 11 55 25 27 14 53 25 56 25 4 0 -3 -11 -16 -25 -32 -34 -15 -31 50 10 61 38 75 38 40 0 -34 -36 -16 -31 47 15 31 22 60 40 65 40 5 0 0 -16 -12 -35 -24 -38 -18 -44 18 -17 22 17 22 17 20 730 -3 713 -3 713 -60 610z"></path><path id="pOgMGjpBe" d="M3167 4922 c2 -10 16 -32 29 -48 25 -29 25 -29 5 13 -22 44 -42 65 -34 35z"></path><path id="p1F31SSGoi" d="M5763 2880 c-56 -12 -117 -44 -142 -76 -28 -35 -27 -41 10 -59 29 -16 31 -15 49 8 63 80 221 76 276 -8 17 -26 33 -165 20 -165 -4 0 -18 13 -32 29 -51 61 -157 80 -240 42 -52 -24 -108 -90 -124 -147 -17 -59 -8 -159 18 -210 67 -132 235 -165 342 -68 39 35 39 35 42 -3 3 -37 4 -38 43 -38 40 0 40 0 43 235 3 261 -5 318 -47 378 -48 66 -159 101 -258 82z m144 -311 c70 -44 93 -146 51 -229 -30 -57 -65 -82 -126 -88 -40 -3 -59 0 -91 19 -103 57 -110 231 -12 296 46 31 130 32 178 2z"></path><path id="pP7cATYTz" d="M5744 2551 c-67 -41 -82 -166 -28 -230 60 -72 178 -60 221 23 21 41 21 128 -1 161 -41 62 -131 83 -192 46z"></path><path id="pmJA74g6L" d="M5088 2659 c-45 -23 -68 -64 -68 -119 0 -56 23 -96 69 -119 44 -23 141 -41 220 -41 54 0 54 0 48 -37 -9 -58 -54 -93 -118 -93 -57 0 -85 12 -115 49 -19 22 -25 24 -50 16 -42 -15 -41 -40 3 -84 100 -101 298 -73 351 49 12 26 17 82 20 213 4 178 4 178 -39 175 -41 -3 -44 -5 -49 -37 -5 -33 -5 -33 -25 -11 -51 58 -175 78 -247 39z m186 -63 c49 -20 76 -60 76 -114 0 -44 0 -44 -77 -37 -105 10 -145 24 -161 58 -36 74 66 133 162 93z"></path><path id="pkBAEIBh1" d="M5162 2578 c-32 -16 -40 -55 -15 -80 29 -28 183 -40 183 -14 0 72 -99 127 -168 94z"></path><path id="ptTP1STHu" d="M6322 2654 c-87 -43 -131 -119 -131 -229 -2 -195 200 -316 365 -220 57 34 92 87 106 162 18 97 27 93 -192 93 -205 0 -206 0 -179 53 52 100 172 125 255 53 34 -29 42 -32 66 -24 38 13 36 40 -7 81 -65 63 -191 77 -283 31z m136 -263 c137 -1 139 -3 101 -71 -27 -49 -66 -70 -126 -70 -65 0 -109 28 -134 85 -22 50 -19 67 14 61 12 -3 77 -5 145 -5z"></path><path id="p15adZekji" d="M6310 2364 c0 -19 38 -65 65 -80 61 -33 138 -7 171 58 15 28 15 28 -111 28 -69 0 -125 -3 -125 -6z"></path><path id="p17fW74RR2" d="M3549 2548 c-1 -68 -2 -220 -3 -338 -1 -215 -1 -215 53 -215 61 0 36 -43 216 368 38 86 72 157 75 157 3 0 41 -82 85 -182 43 -101 96 -220 116 -265 38 -83 38 -83 94 -83 55 0 55 0 55 340 0 340 0 340 -45 340 -45 0 -45 0 -45 -245 0 -135 -3 -245 -7 -245 -7 0 -149 312 -208 453 -13 31 -20 37 -46 37 -34 0 -17 30 -164 -307 -44 -101 -83 -183 -87 -183 -3 0 -6 109 -5 243 2 242 2 242 -40 245 -43 3 -43 3 -44 -120z"></path><path id="p5NFpKyoB" d="M4410 2425 c0 -245 0 -245 45 -245 45 0 45 0 45 245 0 245 0 245 -45 245 -45 0 -45 0 -45 -245z"></path><path id="p1GkGQNfoG" d="M4657 2663 c-4 -3 -7 -114 -7 -245 0 -239 0 -239 43 -236 41 3 42 4 45 41 4 43 13 47 32 12 17 -33 90 -67 132 -63 31 3 33 6 36 45 3 42 3 42 -45 40 -66 -2 -103 19 -130 73 -21 40 -23 59 -23 192 0 148 0 148 -38 148 -21 0 -42 -3 -45 -7z"></path><path id="pqU5jabe3" d="M4422 2074 c-42 -29 -18 -104 35 -104 49 0 72 76 31 104 -12 9 -27 16 -33 16 -6 0 -21 -7 -33 -16z"></path></g></g></svg>