<svg xmlns="http://www.w3.org/2000/svg" width="55" height="24" viewBox="0 0 55 24" fill="currentColor">
<path d="M12.2341 0.655016L23.9979 6.0026H42.0165L43.5075 3.41461C44.4023 1.86288 43.3218 0 41.6899 0H12.3609C11.962 0 11.866 0.487725 12.2342 0.655016H12.2341Z" fill="black"/>
<path d="M23.9979 8.29785H53.3473C53.6869 8.29785 54.0154 8.56395 54.0154 8.9603C54.0154 9.31096 53.7752 9.53948 53.5331 9.60654L0.427814 23.9868C0.0817845 24.0816 -0.161538 23.635 0.129412 23.403L23.998 8.29785H23.9979Z" fill="black"/>
<path d="M9.16797 24.0003L28.4352 23.6419C30.3042 23.6071 32.4931 22.5302 33.4919 20.7965L35.8024 16.7861L9.16797 24.0003Z" fill="black"/>
</svg>